<svg width="211" height="60" viewBox="0 0 211 60" fill="none" xmlns="http://www.w3.org/2000/svg">
<rect width="211" height="60" rx="4" fill="#111111"/>
<path d="M65.75 38.2266C64.9844 38.2266 64.3021 38.0938 63.7031 37.8281C63.1042 37.5573 62.6302 37.1589 62.2813 36.6328C61.9375 36.1016 61.7656 35.4401 61.7656 34.6484C61.7656 33.9818 61.888 33.4219 62.1328 32.9687C62.3776 32.5156 62.7109 32.151 63.1328 31.875C63.5547 31.599 64.0339 31.3906 64.5703 31.25C65.112 31.1094 65.6797 31.0104 66.2734 30.9531C66.9714 30.8802 67.5339 30.8125 67.9609 30.75C68.388 30.6823 68.6979 30.5833 68.8906 30.4531C69.0833 30.3229 69.1797 30.1302 69.1797 29.875V29.8281C69.1797 29.3333 69.0234 28.9505 68.7109 28.6797C68.4036 28.4089 67.9661 28.2734 67.3984 28.2734C66.7995 28.2734 66.3229 28.4062 65.9688 28.6719C65.6146 28.9323 65.3802 29.2604 65.2656 29.6562L62.1875 29.4062C62.3438 28.6771 62.651 28.0469 63.1094 27.5156C63.5677 26.9792 64.1589 26.5677 64.8828 26.2812C65.612 25.9896 66.4557 25.8438 67.4141 25.8438C68.0807 25.8438 68.7188 25.9219 69.3281 26.0781C69.9427 26.2344 70.487 26.4766 70.9609 26.8047C71.4401 27.1328 71.8177 27.5547 72.0938 28.0703C72.3698 28.5807 72.5078 29.1927 72.5078 29.9062V38H69.3516V36.3359H69.2578C69.0651 36.7109 68.8073 37.0417 68.4844 37.3281C68.1615 37.6094 67.7734 37.8307 67.3203 37.9922C66.8672 38.1484 66.3438 38.2266 65.75 38.2266ZM66.7031 35.9297C67.1927 35.9297 67.625 35.8333 68 35.6406C68.375 35.4427 68.6693 35.1771 68.8828 34.8438C69.0964 34.5104 69.2031 34.1328 69.2031 33.7109V32.4375C69.099 32.5052 68.9557 32.5677 68.7734 32.625C68.5964 32.6771 68.3958 32.7266 68.1719 32.7734C67.9479 32.8151 67.724 32.8542 67.5 32.8906C67.276 32.9219 67.0729 32.9505 66.8906 32.9766C66.5 33.0339 66.1589 33.125 65.8672 33.25C65.5755 33.375 65.349 33.5443 65.1875 33.7578C65.026 33.9661 64.9453 34.2266 64.9453 34.5391C64.9453 34.9922 65.1094 35.3385 65.4375 35.5781C65.7708 35.8125 66.1927 35.9297 66.7031 35.9297ZM75.1523 38V22H78.4805V28.0156H78.582C78.7279 27.6927 78.9388 27.3646 79.2148 27.0312C79.4961 26.6927 79.8607 26.4115 80.3086 26.1875C80.7617 25.9583 81.3242 25.8438 81.9961 25.8438C82.8711 25.8438 83.6784 26.0729 84.418 26.5313C85.1576 26.9844 85.7487 27.6693 86.1914 28.5859C86.6341 29.4974 86.8555 30.6406 86.8555 32.0156C86.8555 33.3542 86.6393 34.4844 86.207 35.4062C85.7799 36.3229 85.1966 37.0182 84.457 37.4922C83.7227 37.9609 82.8997 38.1953 81.9883 38.1953C81.3424 38.1953 80.793 38.0885 80.3398 37.875C79.8919 37.6615 79.5247 37.3932 79.2383 37.0703C78.9518 36.7422 78.7331 36.4115 78.582 36.0781H78.4336V38H75.1523ZM78.4102 32C78.4102 32.7135 78.5091 33.3359 78.707 33.8672C78.9049 34.3984 79.1914 34.8125 79.5664 35.1094C79.9414 35.401 80.3971 35.5469 80.9336 35.5469C81.4753 35.5469 81.9336 35.3984 82.3086 35.1016C82.6836 34.7995 82.9674 34.3828 83.1602 33.8516C83.3581 33.3151 83.457 32.6979 83.457 32C83.457 31.3073 83.3607 30.6979 83.168 30.1719C82.9753 29.6458 82.6914 29.2344 82.3164 28.9375C81.9414 28.6406 81.4805 28.4922 80.9336 28.4922C80.3919 28.4922 79.9336 28.6354 79.5586 28.9219C79.1888 29.2083 78.9049 29.6146 78.707 30.1406C78.5091 30.6667 78.4102 31.2865 78.4102 32ZM89.0762 38V26H92.3027V28.0937H92.4277C92.6465 27.349 93.0137 26.7865 93.5293 26.4063C94.0449 26.0208 94.6387 25.8281 95.3105 25.8281C95.4772 25.8281 95.6569 25.8385 95.8496 25.8594C96.0423 25.8802 96.2116 25.9089 96.3574 25.9453V28.8984C96.2012 28.8516 95.985 28.8099 95.709 28.7734C95.4329 28.737 95.1803 28.7188 94.9512 28.7188C94.4616 28.7188 94.0241 28.8255 93.6387 29.0391C93.2585 29.2474 92.9564 29.5391 92.7324 29.9141C92.5137 30.2891 92.4043 30.7214 92.4043 31.2109V38H89.0762ZM98.0781 38V26H101.406V38H98.0781ZM99.75 24.4531C99.2552 24.4531 98.8307 24.2891 98.4766 23.9609C98.1276 23.6276 97.9531 23.2292 97.9531 22.7656C97.9531 22.3073 98.1276 21.9141 98.4766 21.5859C98.8307 21.2526 99.2552 21.0859 99.75 21.0859C100.245 21.0859 100.667 21.2526 101.016 21.5859C101.37 21.9141 101.547 22.3073 101.547 22.7656C101.547 23.2292 101.37 23.6276 101.016 23.9609C100.667 24.2891 100.245 24.4531 99.75 24.4531ZM109.541 38.2344C108.307 38.2344 107.244 37.9844 106.354 37.4844C105.468 36.9792 104.786 36.2656 104.307 35.3437C103.827 34.4167 103.588 33.3203 103.588 32.0547C103.588 30.8203 103.827 29.737 104.307 28.8047C104.786 27.8724 105.46 27.1458 106.33 26.625C107.205 26.1042 108.231 25.8438 109.408 25.8438C110.2 25.8438 110.937 25.9714 111.619 26.2266C112.307 26.4766 112.906 26.8542 113.416 27.3594C113.932 27.8646 114.333 28.5 114.619 29.2656C114.906 30.026 115.049 30.9167 115.049 31.9375V32.8516H104.916V30.7891H111.916C111.916 30.3099 111.812 29.8854 111.604 29.5156C111.395 29.1458 111.106 28.8568 110.736 28.6484C110.372 28.4349 109.947 28.3281 109.463 28.3281C108.958 28.3281 108.51 28.4453 108.119 28.6797C107.734 28.9089 107.432 29.2187 107.213 29.6094C106.994 29.9948 106.882 30.4245 106.877 30.8984V32.8594C106.877 33.4531 106.986 33.9661 107.205 34.3984C107.429 34.8307 107.744 35.1641 108.15 35.3984C108.557 35.6328 109.038 35.75 109.596 35.75C109.965 35.75 110.304 35.6979 110.611 35.5938C110.919 35.4896 111.182 35.3333 111.4 35.125C111.619 34.9167 111.786 34.6615 111.9 34.3594L114.979 34.5625C114.822 35.3021 114.502 35.9479 114.018 36.5C113.538 37.0469 112.919 37.474 112.158 37.7813C111.403 38.0833 110.531 38.2344 109.541 38.2344ZM120.549 22V38H117.221V22H120.549ZM128.369 38V22H134.775C135.952 22 136.934 22.1745 137.721 22.5234C138.507 22.8724 139.098 23.3568 139.494 23.9766C139.89 24.5911 140.088 25.2995 140.088 26.1016C140.088 26.7266 139.963 27.276 139.713 27.75C139.463 28.2187 139.119 28.6042 138.682 28.9062C138.249 29.2031 137.755 29.4141 137.197 29.5391V29.6953C137.807 29.7214 138.377 29.8932 138.908 30.2109C139.445 30.5286 139.88 30.974 140.213 31.5469C140.546 32.1146 140.713 32.7917 140.713 33.5781C140.713 34.4271 140.502 35.1849 140.08 35.8516C139.663 36.513 139.046 37.0365 138.229 37.4219C137.411 37.8073 136.403 38 135.205 38H128.369ZM131.752 35.2344H134.51C135.452 35.2344 136.14 35.0547 136.572 34.6953C137.005 34.3307 137.221 33.8464 137.221 33.2422C137.221 32.7995 137.114 32.4089 136.9 32.0703C136.687 31.7318 136.382 31.4661 135.986 31.2734C135.596 31.0807 135.13 30.9844 134.588 30.9844H131.752V35.2344ZM131.752 28.6953H134.26C134.723 28.6953 135.135 28.6146 135.494 28.4531C135.859 28.2865 136.145 28.0521 136.354 27.75C136.567 27.4479 136.674 27.0859 136.674 26.6641C136.674 26.0859 136.468 25.6198 136.057 25.2656C135.65 24.9115 135.072 24.7344 134.322 24.7344H131.752V28.6953ZM146.273 38.2266C145.508 38.2266 144.826 38.0938 144.227 37.8281C143.628 37.5573 143.154 37.1589 142.805 36.6328C142.461 36.1016 142.289 35.4401 142.289 34.6484C142.289 33.9818 142.411 33.4219 142.656 32.9687C142.901 32.5156 143.234 32.151 143.656 31.875C144.078 31.599 144.557 31.3906 145.094 31.25C145.635 31.1094 146.203 31.0104 146.797 30.9531C147.495 30.8802 148.057 30.8125 148.484 30.75C148.911 30.6823 149.221 30.5833 149.414 30.4531C149.607 30.3229 149.703 30.1302 149.703 29.875V29.8281C149.703 29.3333 149.547 28.9505 149.234 28.6797C148.927 28.4089 148.49 28.2734 147.922 28.2734C147.323 28.2734 146.846 28.4062 146.492 28.6719C146.138 28.9323 145.904 29.2604 145.789 29.6562L142.711 29.4062C142.867 28.6771 143.174 28.0469 143.633 27.5156C144.091 26.9792 144.682 26.5677 145.406 26.2812C146.135 25.9896 146.979 25.8438 147.938 25.8438C148.604 25.8438 149.242 25.9219 149.852 26.0781C150.466 26.2344 151.01 26.4766 151.484 26.8047C151.964 27.1328 152.341 27.5547 152.617 28.0703C152.893 28.5807 153.031 29.1927 153.031 29.9062V38H149.875V36.3359H149.781C149.589 36.7109 149.331 37.0417 149.008 37.3281C148.685 37.6094 148.297 37.8307 147.844 37.9922C147.391 38.1484 146.867 38.2266 146.273 38.2266ZM147.227 35.9297C147.716 35.9297 148.148 35.8333 148.523 35.6406C148.898 35.4427 149.193 35.1771 149.406 34.8438C149.62 34.5104 149.727 34.1328 149.727 33.7109V32.4375C149.622 32.5052 149.479 32.5677 149.297 32.625C149.12 32.6771 148.919 32.7266 148.695 32.7734C148.471 32.8151 148.247 32.8542 148.023 32.8906C147.799 32.9219 147.596 32.9505 147.414 32.9766C147.023 33.0339 146.682 33.125 146.391 33.25C146.099 33.375 145.872 33.5443 145.711 33.7578C145.549 33.9661 145.469 34.2266 145.469 34.5391C145.469 34.9922 145.633 35.3385 145.961 35.5781C146.294 35.8125 146.716 35.9297 147.227 35.9297ZM158.941 22V38H155.613V22H158.941ZM167.99 26V28.5H160.764V26H167.99ZM162.404 23.125H165.732V34.3125C165.732 34.6198 165.779 34.8594 165.873 35.0312C165.967 35.1979 166.097 35.3151 166.264 35.3828C166.436 35.4505 166.633 35.4844 166.857 35.4844C167.014 35.4844 167.17 35.4714 167.326 35.4453C167.482 35.4141 167.602 35.3906 167.686 35.375L168.209 37.8516C168.042 37.9036 167.808 37.9635 167.506 38.0313C167.204 38.1042 166.837 38.1484 166.404 38.1641C165.602 38.1953 164.899 38.0885 164.295 37.8437C163.696 37.599 163.23 37.2187 162.896 36.7031C162.563 36.1875 162.399 35.5365 162.404 34.75V23.125ZM173.58 38.2266C172.814 38.2266 172.132 38.0938 171.533 37.8281C170.934 37.5573 170.46 37.1589 170.111 36.6328C169.768 36.1016 169.596 35.4401 169.596 34.6484C169.596 33.9818 169.718 33.4219 169.963 32.9687C170.208 32.5156 170.541 32.151 170.963 31.875C171.385 31.599 171.864 31.3906 172.4 31.25C172.942 31.1094 173.51 31.0104 174.104 30.9531C174.801 30.8802 175.364 30.8125 175.791 30.75C176.218 30.6823 176.528 30.5833 176.721 30.4531C176.913 30.3229 177.01 30.1302 177.01 29.875V29.8281C177.01 29.3333 176.854 28.9505 176.541 28.6797C176.234 28.4089 175.796 28.2734 175.229 28.2734C174.63 28.2734 174.153 28.4062 173.799 28.6719C173.445 28.9323 173.21 29.2604 173.096 29.6562L170.018 29.4062C170.174 28.6771 170.481 28.0469 170.939 27.5156C171.398 26.9792 171.989 26.5677 172.713 26.2812C173.442 25.9896 174.286 25.8438 175.244 25.8438C175.911 25.8438 176.549 25.9219 177.158 26.0781C177.773 26.2344 178.317 26.4766 178.791 26.8047C179.27 27.1328 179.648 27.5547 179.924 28.0703C180.2 28.5807 180.338 29.1927 180.338 29.9062V38H177.182V36.3359H177.088C176.895 36.7109 176.637 37.0417 176.314 37.3281C175.992 37.6094 175.604 37.8307 175.15 37.9922C174.697 38.1484 174.174 38.2266 173.58 38.2266ZM174.533 35.9297C175.023 35.9297 175.455 35.8333 175.83 35.6406C176.205 35.4427 176.499 35.1771 176.713 34.8438C176.926 34.5104 177.033 34.1328 177.033 33.7109V32.4375C176.929 32.5052 176.786 32.5677 176.604 32.625C176.426 32.6771 176.226 32.7266 176.002 32.7734C175.778 32.8151 175.554 32.8542 175.33 32.8906C175.106 32.9219 174.903 32.9505 174.721 32.9766C174.33 33.0339 173.989 33.125 173.697 33.25C173.406 33.375 173.179 33.5443 173.018 33.7578C172.856 33.9661 172.775 34.2266 172.775 34.5391C172.775 34.9922 172.939 35.3385 173.268 35.5781C173.601 35.8125 174.023 35.9297 174.533 35.9297ZM182.92 38V26H186.146V28.0937H186.271C186.49 27.349 186.857 26.7865 187.373 26.4063C187.889 26.0208 188.482 25.8281 189.154 25.8281C189.321 25.8281 189.501 25.8385 189.693 25.8594C189.886 25.8802 190.055 25.9089 190.201 25.9453V28.8984C190.045 28.8516 189.829 28.8099 189.553 28.7734C189.277 28.737 189.024 28.7188 188.795 28.7188C188.305 28.7188 187.868 28.8255 187.482 29.0391C187.102 29.2474 186.8 29.5391 186.576 29.9141C186.357 30.2891 186.248 30.7214 186.248 31.2109V38H182.92Z" fill="#04BBC2"/>
<circle cx="39" cy="30" r="18" fill="#04BBC2"/>
<path d="M41.9091 27.1562C41.8097 26.8106 41.67 26.5052 41.4901 26.2401C41.3101 25.9702 41.09 25.7429 40.8295 25.5582C40.5739 25.3688 40.2803 25.2244 39.9489 25.125C39.6222 25.0256 39.2599 24.9759 38.8622 24.9759C38.1188 24.9759 37.4654 25.1605 36.902 25.5298C36.3433 25.8991 35.9077 26.4366 35.5952 27.142C35.2827 27.8428 35.1264 28.6998 35.1264 29.7131C35.1264 30.7263 35.2803 31.5881 35.5881 32.2983C35.8958 33.0085 36.3314 33.5507 36.8949 33.9247C37.4583 34.294 38.1236 34.4787 38.8906 34.4787C39.5866 34.4787 40.1809 34.3556 40.6733 34.1094C41.1705 33.8584 41.5492 33.5057 41.8097 33.0511C42.0748 32.5966 42.2074 32.0592 42.2074 31.4389L42.8324 31.5312H39.0824V29.2159H45.169V31.0483C45.169 32.3267 44.8991 33.4252 44.3594 34.3438C43.8196 35.2576 43.0762 35.9631 42.1293 36.4602C41.1823 36.9527 40.098 37.1989 38.8764 37.1989C37.5128 37.1989 36.3149 36.8982 35.2827 36.2969C34.2505 35.6908 33.4455 34.8314 32.8679 33.7188C32.295 32.6013 32.0085 31.2756 32.0085 29.7415C32.0085 28.5625 32.179 27.5114 32.5199 26.5881C32.8655 25.66 33.3485 24.8741 33.9688 24.2301C34.589 23.5862 35.3111 23.0961 36.1349 22.7599C36.9588 22.4238 37.8513 22.2557 38.8125 22.2557C39.6364 22.2557 40.4034 22.3764 41.1136 22.6179C41.8239 22.8546 42.4536 23.1908 43.0028 23.6264C43.5568 24.062 44.009 24.5805 44.3594 25.1818C44.7098 25.7784 44.9347 26.4366 45.0341 27.1562H41.9091Z" fill="#111111"/>
</svg>
