<svg xmlns="http://www.w3.org/2000/svg" width="45" height="37" fill="none" viewBox="0 0 45 37"><g clip-path="url(#clip0_42_21)"><path fill="url(#paint0_linear_42_21)" d="M5.55793 5.30286C5.47633 2.82656 7.30205 0.543076 9.76987 0.543076H35.0573C37.5251 0.543076 39.3508 2.82656 39.2692 5.30286C39.1908 7.68159 39.2926 10.763 40.0265 13.2754C40.7626 15.7956 42.0041 17.3886 44.0373 17.5933V19.9143C42.0041 20.119 40.7626 21.712 40.0265 24.2322C39.2926 26.7447 39.1908 29.826 39.2692 32.2048C39.3508 34.6811 37.5251 36.9645 35.0573 36.9645H9.76987C7.30205 36.9645 5.47633 34.6811 5.55801 32.2048C5.63632 29.826 5.53453 26.7447 4.80062 24.2322C4.06452 21.712 2.82005 20.119 0.786774 19.9143V17.5933C2.81997 17.3886 4.06452 15.7956 4.80062 13.2754C5.53453 10.763 5.63632 7.68159 5.55793 5.30286Z"/><g filter="url(#filter0_d_42_21)"><path fill="url(#paint1_linear_42_21)" d="M23.3499 28.4356C27.3453 28.4356 29.7529 26.3683 29.7529 22.9585C29.7529 20.3811 28.035 18.5151 25.4843 18.2197V18.1123C27.3583 17.7902 28.8289 15.9511 28.8289 13.8972C28.8289 10.9707 26.6426 9.06436 23.3109 9.06436H15.8147V28.4356H23.3499ZM18.7299 11.521H22.6082C24.7165 11.521 25.9137 12.5144 25.9137 14.3132C25.9137 16.233 24.5213 17.3069 21.9965 17.3069H18.7299V11.521ZM18.7299 25.979V19.6025H22.5821C25.3411 19.6025 26.7726 20.6764 26.7726 22.7706C26.7726 24.8648 25.3802 25.979 22.7513 25.979H18.7299Z"/><path stroke="#fff" d="M23.3499 28.4356C27.3453 28.4356 29.7529 26.3683 29.7529 22.9585C29.7529 20.3811 28.035 18.5151 25.4843 18.2197V18.1123C27.3583 17.7902 28.8289 15.9511 28.8289 13.8972C28.8289 10.9707 26.6426 9.06436 23.3109 9.06436H15.8147V28.4356H23.3499ZM18.7299 11.521H22.6082C24.7165 11.521 25.9137 12.5144 25.9137 14.3132C25.9137 16.233 24.5213 17.3069 21.9965 17.3069H18.7299V11.521ZM18.7299 25.979V19.6025H22.5821C25.3411 19.6025 26.7726 20.6764 26.7726 22.7706C26.7726 24.8648 25.3802 25.979 22.7513 25.979H18.7299Z"/></g></g><defs><filter id="filter0_d_42_21" width="46.938" height="52.371" x="-.685" y="-3.436" color-interpolation-filters="sRGB" filterUnits="userSpaceOnUse"><feFlood flood-opacity="0" result="BackgroundImageFix"/><feColorMatrix in="SourceAlpha" result="hardAlpha" type="matrix" values="0 0 0 0 0 0 0 0 0 0 0 0 0 0 0 0 0 0 127 0"/><feOffset dy="4"/><feGaussianBlur stdDeviation="8"/><feColorMatrix type="matrix" values="0 0 0 0 0 0 0 0 0 0 0 0 0 0 0 0 0 0 0.15 0"/><feBlend in2="BackgroundImageFix" mode="normal" result="effect1_dropShadow_42_21"/><feBlend in="SourceGraphic" in2="effect1_dropShadow_42_21" mode="normal" result="shape"/></filter><linearGradient id="paint0_linear_42_21" x1="7.213" x2="46.599" y1="1.507" y2="31.092" gradientUnits="userSpaceOnUse"><stop stop-color="#9013FE"/><stop offset="1" stop-color="#6610F2"/></linearGradient><linearGradient id="paint1_linear_42_21" x1="17.133" x2="26.29" y1="10.339" y2="24.994" gradientUnits="userSpaceOnUse"><stop stop-color="#fff"/><stop offset="1" stop-color="#F1E5FC"/></linearGradient><clipPath id="clip0_42_21"><rect width="43.251" height="36.422" fill="#fff" transform="translate(0.786774 0.543076)"/></clipPath></defs></svg>