<svg xmlns="http://www.w3.org/2000/svg" width="31" height="40" fill="none" viewBox="0 0 31 40"><path fill="#264DE4" d="M30.0287 7.97849L27.293 36.6695L14.996 39.8611L2.73279 36.674L0 7.97849H30.0287Z"/><path fill="#2965F1" d="M24.9509 34.8426L27.2888 10.3248H15.0143V37.4216L24.9509 34.8426Z"/><path fill="#EBEBEB" d="M6.26486 20.9675L6.60179 24.4869H15.0143V20.9675H6.26486Z"/><path fill="#EBEBEB" d="M15.0143 13.8442H15.0013H5.58786L5.92959 17.3636H15.0143V13.8442Z"/><path fill="#EBEBEB" d="M15.0143 33.7694V30.1077L14.9978 30.1119L10.8111 29.0535L10.5435 26.2466H8.50904H6.76974L7.29642 31.7726L14.997 33.7739L15.0143 33.7694Z"/><path fill="#000" d="M7.06705 0.180298H11.6202V1.96283H8.97109V3.74537H11.6202V5.5279H7.06705V0.180298Z"/><path fill="#000" d="M12.5308 0.180298H17.0839V1.73033H14.4348V2.04033H17.0839V5.6054H12.5308V3.97787H15.1799V3.66787H12.5308V0.180298Z"/><path fill="#000" d="M17.9946 0.180298H22.5477V1.73033H19.8986V2.04033H22.5477V5.6054H17.9946V3.97787H20.6437V3.66787H17.9946V0.180298Z"/><path fill="#fff" d="M19.6305 24.4869L19.1941 29.0512L15.0013 30.1107V33.7722L22.7081 31.7726L22.7646 31.178L23.648 21.9126L23.7397 20.9675L24.4184 13.8442H15.0013V17.3636H20.2985L19.9565 20.9675H15.0013V24.4869H19.6305Z"/></svg>