<svg xmlns="http://www.w3.org/2000/svg" width="26" height="39" fill="none" viewBox="0 0 26 39"><g clip-path="url(#clip0_42_40)"><path fill="#1ABCFE" d="M12.8032 19.7109C12.8032 18.0164 13.4764 16.3912 14.6746 15.193C15.8728 13.9948 17.498 13.3216 19.1925 13.3216C20.887 13.3216 22.5122 13.9948 23.7104 15.193C24.9086 16.3912 25.5818 18.0164 25.5818 19.7109C25.5818 21.4055 24.9086 23.0306 23.7104 24.2288C22.5122 25.427 20.887 26.1002 19.1925 26.1002C17.498 26.1002 15.8728 25.427 14.6746 24.2288C13.4764 23.0306 12.8032 21.4055 12.8032 19.7109Z"/><path fill="#0ACF83" d="M0.0246582 32.4895C0.0246582 30.7949 0.697812 29.1698 1.89603 27.9716C3.09426 26.7733 4.71939 26.1002 6.41394 26.1002H12.8032V32.4895C12.8032 34.184 12.1301 35.8091 10.9318 37.0074C9.73361 38.2056 8.10848 38.8787 6.41394 38.8787C4.71939 38.8787 3.09426 38.2056 1.89603 37.0074C0.697812 35.8091 0.0246582 34.184 0.0246582 32.4895H0.0246582Z"/><path fill="#FF7262" d="M12.8032 0.543076V13.3216H19.1925C20.887 13.3216 22.5122 12.6485 23.7104 11.4503C24.9086 10.252 25.5818 8.62689 25.5818 6.93235C25.5818 5.23781 24.9086 3.61267 23.7104 2.41445C22.5122 1.21623 20.887 0.543076 19.1925 0.543076L12.8032 0.543076Z"/><path fill="#F24E1E" d="M0.0246582 6.93235C0.0246582 8.62689 0.697812 10.252 1.89603 11.4503C3.09426 12.6485 4.71939 13.3216 6.41394 13.3216H12.8032V0.543076H6.41394C4.71939 0.543076 3.09426 1.21623 1.89603 2.41445C0.697812 3.61267 0.0246582 5.23781 0.0246582 6.93235H0.0246582Z"/><path fill="#A259FF" d="M0.0246582 19.7109C0.0246582 21.4055 0.697812 23.0306 1.89603 24.2288C3.09426 25.427 4.71939 26.1002 6.41394 26.1002H12.8032V13.3216H6.41394C4.71939 13.3216 3.09426 13.9948 1.89603 15.193C0.697812 16.3912 0.0246582 18.0164 0.0246582 19.7109H0.0246582Z"/></g><defs><clipPath id="clip0_42_40"><rect width="25.557" height="38.336" fill="#fff" transform="translate(0.0246582 0.543076)"/></clipPath></defs></svg>