<svg width="38" height="38" viewBox="0 0 38 38" fill="none" xmlns="http://www.w3.org/2000/svg">
<g clip-path="url(#clip0_42_46)">
<path d="M37.1121 17.3877L20.6774 0.955052C19.7318 0.00858431 18.1969 0.00858431 17.2501 0.955052L13.8376 4.36786L18.1662 8.69647C19.1725 8.35671 20.3259 8.58451 21.1277 9.38643C21.9336 10.1933 22.1598 11.3566 21.8115 12.3663L25.9835 16.5383C26.9929 16.1905 28.1574 16.4152 28.9634 17.2226C30.0902 18.349 30.0902 20.1743 28.9634 21.3011C27.8364 22.4282 26.0111 22.4282 24.8835 21.3011C24.0363 20.4532 23.8267 19.2083 24.2559 18.1644L20.365 14.2736L20.3647 24.5123C20.6394 24.6483 20.8986 24.8298 21.1275 25.0577C22.254 26.1841 22.254 28.009 21.1275 29.1372C20.0008 30.2635 18.1746 30.2635 17.049 29.1372C15.9224 28.0091 15.9224 26.1842 17.049 25.0577C17.3274 24.7798 17.6496 24.5694 17.9934 24.4284V14.0945C17.6495 13.9541 17.3277 13.7453 17.0488 13.4652C16.1955 12.6124 15.9899 11.36 16.4276 10.3121L12.1604 6.04423L0.892538 17.3118C-0.0542266 18.259 -0.0542266 19.7939 0.892538 20.7404L17.3262 37.1731C18.2723 38.1196 19.8068 38.1196 20.7542 37.1731L37.1119 20.8181C38.0584 19.8712 38.0584 18.3358 37.1119 17.3891" fill="#F05133"/>
</g>
<defs>
<clipPath id="clip0_42_46">
<rect width="37.6631" height="37.6631" fill="white" transform="translate(0.182434 0.21563)"/>
</clipPath>
</defs>
</svg>
