<svg width="34" height="38" viewBox="0 0 34 38" fill="none" xmlns="http://www.w3.org/2000/svg">
<path d="M2.04156 28.2124L3.42862 29.0132L18.881 2.24961L17.494 1.44876L2.04156 28.2124Z" fill="#E535AB"/>
<path d="M32.6288 26.0742H1.72394V27.6759H32.6288V26.0742Z" fill="#E535AB"/>
<path d="M2.33547 26.974L17.7937 35.8991L18.5945 34.512L3.13631 25.5869L2.33547 26.974Z" fill="#E535AB"/>
<path d="M15.764 3.71297L31.2222 12.638L32.0231 11.251L16.5648 2.32591L15.764 3.71297Z" fill="#E535AB"/>
<path d="M2.33975 11.2449L3.14059 12.6319L18.5988 3.70688L17.798 2.31982L2.33975 11.2449Z" fill="#E535AB"/>
<path d="M15.4848 2.2499L30.9372 29.0135L32.3243 28.2126L16.8719 1.44906L15.4848 2.2499Z" fill="#E535AB"/>
<path d="M4.551 10.1827H2.94931V28.0329H4.551V10.1827Z" fill="#E535AB"/>
<path d="M31.413 10.1827H29.8113V28.0329H31.413V10.1827Z" fill="#E535AB"/>
<path d="M16.8215 34.0095L17.521 35.2211L30.9655 27.4587L30.2659 26.2471L16.8215 34.0095Z" fill="#E535AB"/>
<path d="M33.5357 28.5539C32.6094 30.1652 30.5446 30.7152 28.9333 29.7889C27.3219 28.8627 26.772 26.7978 27.6982 25.1865C28.6245 23.5752 30.6894 23.0252 32.3007 23.9515C33.9217 24.8874 34.4716 26.9426 33.5357 28.5539Z" fill="#E535AB"/>
<path d="M6.65444 13.0291C5.72816 14.6405 3.66333 15.1904 2.052 14.2642C0.440662 13.3379 -0.109315 11.2731 0.816961 9.66172C1.74324 8.05039 3.80806 7.50041 5.4194 8.42669C7.03073 9.36261 7.58071 11.4178 6.65444 13.0291Z" fill="#E535AB"/>
<path d="M0.826605 28.5539C-0.0996716 26.9426 0.450305 24.8874 2.06164 23.9515C3.67298 23.0252 5.72815 23.5752 6.66408 25.1865C7.59035 26.7978 7.04038 28.853 5.42904 29.7889C3.80806 30.7152 1.75288 30.1652 0.826605 28.5539Z" fill="#E535AB"/>
<path d="M27.7079 13.0291C26.7816 11.4178 27.3316 9.36261 28.943 8.42669C30.5543 7.50041 32.6095 8.05039 33.5454 9.66172C34.4717 11.2731 33.9217 13.3282 32.3104 14.2642C30.699 15.1904 28.6342 14.6405 27.7079 13.0291Z" fill="#E535AB"/>
<path d="M17.1812 38C15.319 38 13.8138 36.4948 13.8138 34.6326C13.8138 32.7704 15.319 31.2652 17.1812 31.2652C19.0434 31.2652 20.5486 32.7704 20.5486 34.6326C20.5486 36.4852 19.0434 38 17.1812 38Z" fill="#E535AB"/>
<path d="M17.1812 6.95043C15.319 6.95043 13.8138 5.44523 13.8138 3.58303C13.8138 1.72083 15.319 0.21563 17.1812 0.21563C19.0434 0.21563 20.5486 1.72083 20.5486 3.58303C20.5486 5.44523 19.0434 6.95043 17.1812 6.95043Z" fill="#E535AB"/>
</svg>
