<svg xmlns="http://www.w3.org/2000/svg" width="30" height="42" fill="none" viewBox="0 0 30 42"><path fill="#000" d="M2.89221 0H4.77893V1.87031H6.51799V0H8.40471V5.66016H6.51799V3.77344H4.79534V5.66016H2.89221V0ZM10.8985 1.88672H9.23323V0H14.4586V1.88672H12.7852V5.66016H10.8985V1.88672ZM15.2871 0H17.2641L18.4782 1.99336L19.6922 0H21.6692V5.66016H19.7824V2.85469L18.4617 4.88906L17.141 2.85469V5.66016H15.2871V0ZM22.6043 0H24.491V3.78984H27.1653V5.66016H22.6043"/><path fill="#E44D26" d="M2.82654 38.6367L0.119507 8.25232H29.8804L27.1734 38.6203L14.9754 42"/><path fill="#F16529" d="M15 39.416V10.7461H27.1652L24.8437 36.668"/><path fill="#EBEBEB" d="M5.64844 14.4621H15V18.1863H9.73359L10.0781 22.0008H15V25.7168H6.66562L5.64844 14.4621ZM6.82969 27.5871H10.5703L10.8328 30.5648L15 31.6805V35.5688L7.35469 33.4359"/><path fill="#fff" d="M24.3187 14.4621H14.9836V18.1863H23.9742L24.3187 14.4621ZM23.6379 22.0008H14.9836V25.725H19.5773L19.1426 30.5648L14.9836 31.6805V35.5523L22.6125 33.4359"/></svg>