<svg xmlns="http://www.w3.org/2000/svg" width="34" height="34" fill="none" viewBox="0 0 34 34"><path fill="#DC395F" d="M30.9178 0H3.08218C1.37992 0 0 1.37992 0 3.08218V30.9178C0 32.6201 1.37992 34 3.08218 34H30.9178C32.6201 34 34 32.6201 34 30.9178V3.08218C34 1.37992 32.6201 0 30.9178 0Z"/><path fill="#fff" d="M11.3628 10.6974C12.493 10.6974 13.4398 9.81152 13.4398 8.65048C13.4398 7.49023 12.493 6.6045 11.3628 6.6045C10.2325 6.6045 9.28598 7.49023 9.28598 8.65048C9.28598 9.81139 10.2325 10.6974 11.3628 10.6974ZM7.0562 21.6571C6.93414 22.1764 6.87291 22.7371 6.87291 23.1945C6.87291 24.9969 7.85028 26.1934 9.92734 26.1934C11.6499 26.1934 13.0464 25.1705 14.052 23.5187L13.438 25.9828H16.8586L18.8136 18.1417C19.3023 16.1564 20.2491 15.1259 21.6848 15.1259C22.8149 15.1259 23.5174 15.8287 23.5174 16.989C23.5174 17.3251 23.4868 17.6913 23.3646 18.0885L22.3566 21.6927C22.2039 22.212 22.143 22.7315 22.143 23.2199C22.143 24.9309 23.1507 26.1824 25.2583 26.1824C27.0604 26.1824 28.4959 25.0223 29.2901 22.2426L27.9463 21.7239C27.2742 23.586 26.6939 23.9227 26.2357 23.9227C25.7774 23.9227 25.5331 23.6175 25.5331 23.007C25.5331 22.7321 25.5944 22.427 25.6858 22.0596L26.6634 18.5483C26.9077 17.7238 26.9995 16.9927 26.9995 16.3209C26.9995 13.6942 25.411 12.3233 23.4868 12.3233C21.6848 12.3233 19.852 13.9488 18.9359 15.6595L19.6076 12.5889H14.3849L13.6518 15.2935H16.0954L14.5906 21.3179C13.409 23.9446 11.2385 23.9873 10.9661 23.9263C10.5188 23.8254 10.2327 23.6555 10.2327 23.0743C10.2327 22.739 10.2938 22.2573 10.4465 21.6765L12.7375 12.5889H6.93414L6.20102 15.2935H8.61382L7.05633 21.6571"/></svg>