<svg width="101" height="28" viewBox="0 0 101 28" fill="none" xmlns="http://www.w3.org/2000/svg">
<path d="M12.2041 10.9112C10.8143 4.78735 7.91761 3.15712 7.17868 2.0047C6.87398 1.49704 6.60406 0.969343 6.37076 0.42524C6.33173 0.969257 6.26001 1.31199 5.79705 1.72454C4.86749 2.55235 0.919571 5.76568 0.587326 12.7237C0.277774 19.2111 5.36222 23.2114 6.03398 23.6249C6.5505 23.8788 7.17959 23.6303 7.48642 23.3973C9.93741 21.7172 13.2862 17.2381 12.2069 10.9112" fill="#10AA50"/>
<path d="M6.58138 20.1704C6.45338 21.7761 6.3617 22.7091 6.03671 23.6267C6.03671 23.6267 6.25004 25.1554 6.39982 26.7747H6.92996C7.05642 25.6344 7.2495 24.5024 7.50822 23.3846C6.82194 23.0473 6.6077 21.5794 6.58138 20.1704Z" fill="#B8C4C2"/>
<path d="M7.50731 23.3855C6.81377 23.0654 6.61315 21.5667 6.58229 20.1704C6.7538 17.867 6.8038 15.5563 6.73207 13.2477C6.69576 12.0364 6.74932 2.02828 6.43341 0.563057C6.64951 1.05931 6.89849 1.54063 7.17869 2.0038C7.91762 3.15711 10.8152 4.78735 12.2041 10.9112C13.2862 17.2272 9.95558 21.6945 7.50731 23.3855Z" fill="#12924F"/>
<path d="M98.9203 21.1714C98.6233 21.1713 98.333 21.0836 98.0858 20.9192C97.8386 20.7548 97.6456 20.5211 97.531 20.2475C97.4165 19.9739 97.3854 19.6725 97.4419 19.3813C97.4983 19.0901 97.6397 18.822 97.8482 18.6109C98.0568 18.3997 98.3231 18.2548 98.6139 18.1944C98.9046 18.1341 99.2068 18.1609 99.4823 18.2715C99.7578 18.3822 99.9944 18.5718 100.162 18.8164C100.33 19.061 100.422 19.3497 100.426 19.6463C100.432 19.8463 100.397 20.0453 100.323 20.2314C100.25 20.4175 100.139 20.5868 99.9985 20.7292C99.8579 20.8717 99.6899 20.9842 99.5046 21.0602C99.3193 21.1362 99.1206 21.174 98.9203 21.1714ZM98.9203 18.2989C98.6489 18.2972 98.3832 18.3758 98.1567 18.525C97.9301 18.6742 97.753 18.8872 97.6478 19.137C97.5425 19.3868 97.5139 19.6621 97.5655 19.9282C97.617 20.1943 97.7465 20.4391 97.9375 20.6316C98.1284 20.8242 98.3723 20.9557 98.6382 21.0097C98.9041 21.0637 99.1801 21.0376 99.4311 20.9348C99.6822 20.832 99.8971 20.6571 100.049 20.4323C100.2 20.2074 100.281 19.9427 100.282 19.6717C100.285 19.4915 100.253 19.3125 100.186 19.1452C100.119 18.9779 100.019 18.8257 99.8918 18.6977C99.7648 18.5697 99.6134 18.4684 99.4465 18.3999C99.2796 18.3314 99.1007 18.2971 98.9203 18.2989ZM99.2834 20.6183L98.8949 19.7814H98.5817V20.6183H98.3538V18.7142H98.9157C99.3342 18.7142 99.5085 18.8956 99.5085 19.2464C99.5085 19.5257 99.3769 19.6998 99.1318 19.7533L99.533 20.6156L99.2834 20.6183ZM98.5908 19.5846H98.9203C99.1872 19.5846 99.2888 19.494 99.2888 19.251C99.2888 19.008 99.1917 18.9255 98.8912 18.9255H98.5908V19.5846Z" fill="white"/>
<path d="M76.5064 19.8004C76.914 20.1259 77.7283 20.2601 78.4463 20.2601C79.3768 20.2601 80.2891 20.0878 81.1806 19.2836C82.0883 18.4594 82.7129 17.1982 82.7129 15.1844C82.7129 13.2495 81.9758 11.6792 80.4634 10.7598C79.6101 10.2239 78.5044 10.0126 77.2435 10.0126C76.8804 10.0126 76.5064 10.0317 76.294 10.1278C76.2069 10.1965 76.1453 10.2922 76.1188 10.3998C76.0807 10.7443 76.0807 13.3683 76.0807 14.9197C76.0807 16.51 76.0807 18.7278 76.1188 18.9998C76.1388 19.2301 76.255 19.6345 76.5064 19.8041V19.8004ZM72.6357 9.15128C72.9652 9.15128 74.2179 9.2084 74.8007 9.2084C75.89 9.2084 76.6426 9.15128 78.6787 9.15128C80.3853 9.15128 81.8214 9.61098 82.8481 10.4914C84.09 11.5649 84.7545 13.0582 84.7545 14.878C84.7545 17.4639 83.5744 18.9581 82.3879 19.8004C81.2078 20.6817 79.6727 21.1795 77.4859 21.1795C76.3221 21.1795 74.3241 21.1414 72.6566 21.1224H72.6221C72.544 20.9692 72.7646 20.3716 72.9007 20.3562C73.3546 20.3055 73.4745 20.2873 73.6832 20.2012C74.0355 20.057 74.1181 19.8775 74.1571 19.2455C74.2152 18.0578 74.1961 16.6406 74.1961 15.0312C74.1961 13.8824 74.2152 11.6411 74.1771 10.932C74.1181 10.3391 73.8675 10.1858 73.3601 10.0707C73.0002 9.99432 72.6366 9.93682 72.2707 9.8984C72.2326 9.78325 72.5304 9.26371 72.6275 9.15128" fill="white"/>
<path d="M89.5611 10.1233C89.484 10.1423 89.3868 10.3345 89.3868 10.4297C89.3669 11.1197 89.3478 12.9195 89.3478 14.1644C89.3527 14.1882 89.3646 14.21 89.3818 14.2271C89.3991 14.2442 89.4211 14.2558 89.4449 14.2605C89.6964 14.2796 90.3173 14.2995 90.8411 14.2995C91.5782 14.2995 92.0049 14.2034 92.2373 14.0882C92.8582 13.7818 93.145 13.1108 93.145 12.3837C93.145 10.7171 91.9813 10.0852 90.2556 10.0852C90.0223 10.0822 89.7891 10.095 89.5575 10.1233H89.5611ZM93.9602 17.7848C93.9602 16.0993 92.7184 15.1418 90.4489 15.1418C90.3527 15.1418 89.6319 15.1228 89.4604 15.1609C89.4023 15.1799 89.3442 15.218 89.3442 15.257C89.3442 16.4638 89.3242 18.3978 89.3832 19.1639C89.4222 19.4894 89.6555 19.9491 89.9451 20.0833C90.2556 20.2556 90.9537 20.2937 91.4384 20.2937C92.7765 20.2937 93.9602 19.5475 93.9602 17.7848ZM86.0571 9.18483C86.2323 9.18483 86.7479 9.24195 88.0669 9.24195C89.3079 9.24195 90.3164 9.20387 91.5165 9.20387C93.0098 9.20387 95.065 9.74063 95.065 11.962C95.065 13.0501 94.2897 13.935 93.2812 14.3566C93.2231 14.3757 93.2231 14.4137 93.2812 14.4328C94.7164 14.7955 95.9764 15.6777 95.9764 17.3632C95.9764 19.0107 94.9488 20.0452 93.4555 20.6962C92.5477 21.0988 91.4193 21.2321 90.2783 21.2321C89.4059 21.2321 87.0675 21.1414 85.7675 21.1559C85.6314 21.0988 85.8919 20.485 86.0081 20.3898C86.3059 20.3806 86.6014 20.3343 86.8877 20.252C87.3525 20.1377 87.4079 19.9881 87.466 19.2981C87.505 18.7042 87.505 16.578 87.505 15.0648C87.505 12.9957 87.525 11.5985 87.505 10.9085C87.486 10.3726 87.2917 10.1994 86.9231 10.1042C86.6326 10.0462 86.1479 9.98907 85.7603 9.93195C85.6631 9.83584 85.9618 9.26099 86.058 9.18483" fill="white"/>
<path d="M16.4988 21.1714C16.4489 21.0488 16.4286 20.9161 16.4398 20.7842C16.4355 20.6943 16.4559 20.6049 16.4988 20.5258C16.7496 20.4897 16.9982 20.4391 17.2432 20.3744C17.5863 20.2891 17.7152 20.1024 17.7352 19.6653C17.7915 18.6326 17.7951 16.695 17.7751 15.3331V15.2932C17.7751 15.1464 17.7751 14.9469 17.5936 14.8063C17.2745 14.6064 16.928 14.4537 16.5651 14.353C16.4026 14.3049 16.3127 14.2197 16.3173 14.12C16.3218 14.0202 16.4244 13.9024 16.6359 13.8607C17.1978 13.8035 18.6702 13.4526 19.2485 13.1861C19.308 13.2636 19.3356 13.3609 19.3256 13.4581C19.3256 13.5179 19.3165 13.5814 19.3102 13.6467C19.2939 13.8389 19.2757 14.0574 19.2757 14.275C19.2793 14.3015 19.2901 14.3264 19.3071 14.347C19.3241 14.3676 19.3464 14.383 19.3717 14.3916C19.397 14.4002 19.4242 14.4015 19.4502 14.3955C19.4762 14.3895 19.5 14.3763 19.519 14.3575C20.6201 13.4953 21.6069 13.1879 22.1125 13.1879C22.9449 13.1879 23.5931 13.585 24.0951 14.4029C24.1066 14.4226 24.123 14.4391 24.1427 14.4507C24.1624 14.4622 24.1848 14.4686 24.2076 14.4691C24.2284 14.4689 24.2489 14.4636 24.2672 14.4539C24.2855 14.4441 24.3012 14.43 24.3129 14.4128C25.3251 13.6458 26.3282 13.1879 27 13.1879C28.5867 13.1879 29.5354 14.3748 29.5354 16.3613C29.5354 16.9326 29.5299 17.657 29.5245 18.3325C29.5199 18.9255 29.5154 19.4813 29.5154 19.8657C29.5154 19.9564 29.6407 20.2175 29.8286 20.2692C30.061 20.3825 30.3959 20.4406 30.8199 20.5131H30.8362C30.868 20.6273 30.8008 21.0707 30.7364 21.1614C30.6311 21.1614 30.4858 21.1523 30.3043 21.1432C29.9747 21.1269 29.5227 21.1043 28.9971 21.1043C27.9422 21.1043 27.3912 21.1242 26.8647 21.1587C26.8248 21.0272 26.8111 20.6029 26.8593 20.514C27.0773 20.4799 27.2931 20.433 27.5056 20.3735C27.8415 20.2628 27.9386 20.1105 27.9595 19.6653C27.9676 19.3489 28.0285 16.5608 27.9204 15.8989C27.8206 15.2125 27.3032 14.4092 26.1712 14.4092C25.7509 14.4092 25.0727 14.5842 24.4264 15.0738C24.3863 15.1192 24.3638 15.1774 24.3629 15.2379V15.2515C24.4391 15.6088 24.4391 16.0259 24.4391 16.656C24.4391 17.0187 24.4391 17.3968 24.4346 17.7749C24.43 18.5437 24.4264 19.2691 24.4391 19.8177C24.4391 20.1912 24.6652 20.281 24.8476 20.3526C24.9466 20.3744 25.0246 20.3934 25.1036 20.4115C25.2552 20.4487 25.4132 20.4868 25.6483 20.524C25.6831 20.6833 25.68 20.8485 25.6392 21.0063C25.6296 21.0656 25.6063 21.1218 25.5711 21.1704C24.9847 21.1505 24.3828 21.1333 23.5141 21.1333C23.2508 21.1333 22.8215 21.1442 22.442 21.1541C22.1343 21.1623 21.8438 21.1704 21.6786 21.1714C21.6339 21.066 21.614 20.9519 21.6205 20.8377C21.6112 20.7301 21.6323 20.622 21.6813 20.5258L21.9146 20.4832C22.1179 20.4469 22.2941 20.4161 22.4593 20.3744C22.7461 20.2837 22.8541 20.1277 22.875 19.7624C22.9313 18.9101 22.9749 16.4538 22.8541 15.8391C22.649 14.8526 22.0871 14.3521 21.1829 14.3521C20.6537 14.3521 19.9847 14.6069 19.4382 15.0158C19.3856 15.0669 19.3442 15.1283 19.3166 15.1962C19.2889 15.2641 19.2756 15.337 19.2775 15.4102C19.2775 15.7031 19.2775 16.0512 19.2775 16.4248C19.2775 17.6579 19.2693 19.1929 19.2993 19.8566C19.3175 20.0616 19.3901 20.3046 19.7741 20.3934C19.8585 20.4179 20.0037 20.4415 20.1726 20.4696C20.2697 20.4859 20.3759 20.5031 20.4858 20.5231C20.5207 20.7402 20.5029 20.9625 20.434 21.1714C20.2652 21.1714 20.0573 21.1605 19.8195 21.1505C19.4563 21.1342 19.0025 21.1142 18.4896 21.1142C17.8832 21.1142 17.4611 21.1342 17.1225 21.1505C16.8946 21.1614 16.6976 21.1704 16.5006 21.1714" fill="white"/>
<path d="M35.9661 14.0076C35.6384 14.0008 35.3162 14.0913 35.0401 14.2678C34.3666 14.6767 34.0234 15.4936 34.0234 16.6941C34.0234 18.9409 35.15 20.5104 36.7631 20.5104C37.1956 20.5241 37.6175 20.3749 37.945 20.0924C38.4407 19.6889 38.7039 18.8638 38.7039 17.7087C38.7039 15.4954 37.6028 14.0076 35.9643 14.0076H35.9661ZM36.2747 21.3436C33.3608 21.3436 32.3232 19.2084 32.3232 17.2109C32.3232 15.8155 32.8942 14.7247 34.0207 13.9677C34.8098 13.4798 35.7155 13.2123 36.6433 13.1933C38.8664 13.1933 40.4196 14.79 40.4196 17.0776C40.4196 18.6317 39.7996 19.8594 38.6259 20.6264C38.0621 20.971 37.0826 21.3436 36.2747 21.3436Z" fill="white"/>
<path d="M65.6322 14.0076C65.3039 14.0001 64.9808 14.0907 64.7044 14.2678C64.0308 14.6767 63.6877 15.4936 63.6877 16.6941C63.6877 18.9409 64.8143 20.5104 66.4274 20.5104C66.8611 20.525 67.2845 20.3757 67.6129 20.0924C68.1086 19.6889 68.3709 18.8638 68.3709 17.7087C68.3709 15.4954 67.2707 14.0076 65.6322 14.0076ZM65.9426 21.3436C63.0287 21.3436 61.9911 19.2084 61.9911 17.2118C61.9911 15.8146 62.5621 14.7247 63.6895 13.9677C64.4781 13.4795 65.3836 13.212 66.3112 13.1933C68.5343 13.1933 70.0875 14.7909 70.0875 17.0767C70.0875 18.6326 69.4675 19.8594 68.2938 20.6255C67.73 20.971 66.7505 21.3436 65.9426 21.3436Z" fill="white"/>
<path d="M55.8209 13.9314C54.9231 13.9314 54.3422 14.6395 54.3422 15.7357C54.3422 16.8319 54.8424 18.1348 56.2485 18.1348C56.49 18.1348 56.9275 18.0278 57.1445 17.7894C57.4713 17.4893 57.6891 16.8691 57.6891 16.2144C57.6891 14.7846 56.992 13.9314 55.8255 13.9314H55.8209ZM55.7093 21.4969C55.4556 21.4941 55.2056 21.5565 54.9831 21.6782C54.2723 22.1315 53.9427 22.5849 53.9427 23.1117C53.9427 23.6049 54.1343 23.9975 54.5464 24.3457C55.0457 24.7682 55.7193 24.974 56.6043 24.974C58.3464 24.974 59.1271 24.0383 59.1271 23.1117C59.1271 22.4661 58.803 22.0336 58.1358 21.7888C57.622 21.6011 56.7632 21.4978 55.712 21.4978L55.7093 21.4969ZM55.8282 25.9406C54.7824 25.9406 54.029 25.7202 53.3854 25.2252C52.759 24.7428 52.4776 24.0265 52.4776 23.5315C52.4844 23.2125 52.6062 22.9066 52.8207 22.6701C53.0023 22.4634 53.4244 22.0762 54.4003 21.4062C54.4154 21.3998 54.4283 21.389 54.4373 21.3753C54.4464 21.3616 54.4512 21.3455 54.4511 21.3291C54.4514 21.3108 54.4455 21.2929 54.4342 21.2784C54.423 21.2639 54.4072 21.2537 54.3894 21.2493C53.586 20.942 53.3436 20.4333 53.2701 20.1613C53.2701 20.1513 53.2701 20.1359 53.2619 20.1187C53.2392 20.0117 53.2174 19.9101 53.3636 19.8059C53.4761 19.7261 53.6559 19.6191 53.8483 19.5058C54.12 19.3556 54.3806 19.1862 54.6281 18.9989C54.6414 18.9846 54.6513 18.9675 54.6569 18.9488C54.6626 18.9301 54.6639 18.9104 54.6607 18.8912C54.6576 18.8719 54.6501 18.8536 54.6387 18.8377C54.6274 18.8218 54.6126 18.8087 54.5954 18.7994C53.4063 18.4005 52.8071 17.5183 52.8071 16.17C52.8035 15.7496 52.9014 15.3345 53.0926 14.9599C53.2838 14.5854 53.5627 14.2624 53.9055 14.0184C54.3839 13.6403 55.5849 13.1861 56.3629 13.1861H56.4083C57.208 13.2051 57.6592 13.3729 58.2837 13.6032C58.639 13.7315 59.0154 13.7912 59.393 13.7791C60.0548 13.7791 60.3444 13.5696 60.5931 13.3257C60.6334 13.4356 60.6549 13.5514 60.6567 13.6684C60.6719 13.9472 60.596 14.2234 60.4406 14.4555C60.3053 14.6431 59.9867 14.7791 59.6953 14.7791C59.6654 14.7791 59.6363 14.7791 59.6045 14.7746C59.4512 14.7638 59.2992 14.7386 59.1507 14.6994L59.0762 14.7257C59.0526 14.7601 59.0681 14.7982 59.0871 14.8471C59.0918 14.8567 59.0954 14.8667 59.098 14.8771C59.1511 15.1191 59.1872 15.3645 59.206 15.6115C59.206 17.0214 58.6496 17.6352 58.0477 18.0904C57.4658 18.5265 56.7748 18.7938 56.0506 18.8629C56.0352 18.8629 55.9598 18.8693 55.8182 18.8819C55.7274 18.8901 55.6094 18.901 55.5922 18.901H55.5749C55.4442 18.9373 55.1029 19.0996 55.1029 19.4015C55.1029 19.6517 55.2572 19.9627 55.9952 20.0189L56.4727 20.0525C57.4459 20.1205 58.6614 20.2048 59.2333 20.3979C59.6126 20.5312 59.9403 20.7805 60.1696 21.1105C60.3989 21.4404 60.5182 21.8342 60.5105 22.2358C60.5105 23.5007 59.61 24.6902 58.1022 25.4174C57.3911 25.7566 56.6126 25.9311 55.8246 25.9279" fill="white"/>
<path d="M51.3674 20.4968C50.9407 20.4396 50.6294 20.3816 50.2617 20.2093C50.1896 20.1347 50.142 20.0398 50.1255 19.9373C50.0865 19.3435 50.0865 17.6198 50.0865 16.4919C50.0865 15.5716 49.9322 14.7692 49.5418 14.1934C49.0762 13.5415 48.4171 13.1589 47.5638 13.1589C46.8076 13.1589 45.7991 13.6757 44.9658 14.3847C44.9458 14.4038 44.8178 14.5253 44.8205 14.3367C44.8232 14.1481 44.8523 13.7655 44.8704 13.5207C44.8785 13.4556 44.8712 13.3896 44.8491 13.3279C44.8271 13.2662 44.7908 13.2105 44.7433 13.1652C44.1987 13.4372 42.6709 13.7999 42.1053 13.8552C41.6932 13.935 41.5888 14.3312 42.0291 14.4682H42.0355C42.3879 14.5652 42.7243 14.713 43.034 14.907C43.2083 15.0412 43.1892 15.2325 43.1892 15.3857C43.2083 16.6687 43.2083 18.6417 43.1502 19.7143C43.1311 20.1359 43.014 20.2891 42.7036 20.3662L42.7326 20.3562C42.4962 20.4154 42.2564 20.4602 42.0146 20.4904C41.9174 20.5856 41.9174 21.1414 42.0146 21.2566C42.2088 21.2566 43.1947 21.1995 44.0117 21.1995C45.1355 21.1995 45.7174 21.2566 46.0088 21.2566C46.1259 21.1224 46.164 20.6056 46.0869 20.4904C45.8183 20.4783 45.5517 20.4397 45.2907 20.3753C44.9812 20.2991 44.9031 20.145 44.8841 19.8013C44.8459 18.9001 44.8459 16.9851 44.8459 15.6822C44.8459 15.3195 44.9421 15.1464 45.0583 15.0475C45.446 14.703 46.0869 14.4736 46.6488 14.4736C47.1934 14.4736 47.5565 14.6459 47.8289 14.8753C48.1461 15.1517 48.3449 15.5392 48.3844 15.9579C48.4616 16.6832 48.4416 18.1421 48.4416 19.4033C48.4416 20.0933 48.3844 20.2665 48.1321 20.3426C48.0159 20.3998 47.7054 20.4578 47.3369 20.4959C47.2207 20.611 47.2588 21.1469 47.3369 21.262C47.8407 21.262 48.4262 21.2049 49.2759 21.2049C50.3425 21.2049 51.0215 21.262 51.2929 21.262C51.4091 21.1278 51.4482 20.6273 51.371 20.4959" fill="white"/>
</svg>
