<svg xmlns="http://www.w3.org/2000/svg" width="35" height="34" fill="none" viewBox="0 0 35 34"><g clip-path="url(#clip0_45_117)"><path fill="#E0234E" d="M20.1336 0C19.8863 0 19.6567 0.0515303 19.4448 0.120234C19.8951 0.412229 20.1424 0.798698 20.266 1.23669C20.2749 1.29681 20.2925 1.33975 20.3013 1.39986C20.3102 1.45139 20.319 1.50292 20.319 1.55445C20.3543 2.31021 20.1159 2.40468 19.9481 2.85126C19.692 3.42667 19.7627 4.04501 20.0717 4.54312C20.0982 4.60324 20.1336 4.67194 20.1777 4.73206C19.8421 2.55926 21.7054 2.23291 22.0498 1.55445C22.0763 0.96187 21.5729 0.566816 21.1756 0.291996C20.7958 0.0687052 20.4515 0 20.1336 0ZM22.9417 0.489524C22.9063 0.68705 22.9328 0.635521 22.924 0.73858C22.9152 0.807284 22.9152 0.893167 22.9064 0.96187C22.8887 1.03058 22.871 1.09928 22.8446 1.16799C22.8269 1.23669 22.8004 1.3054 22.7739 1.3741C22.7386 1.44281 22.7121 1.50292 22.6768 1.57163C22.6503 1.60599 22.6326 1.64033 22.6061 1.67469C22.5885 1.70045 22.5708 1.72621 22.5532 1.75198C22.509 1.8121 22.4648 1.87221 22.4207 1.92374C22.3677 1.97527 22.3236 2.03539 22.2617 2.07833C22.2617 2.08693 22.2617 2.08693 22.2617 2.08693C22.2088 2.12987 22.1558 2.1814 22.094 2.22434C21.9085 2.36175 21.6966 2.4648 21.5023 2.59363C21.4405 2.63657 21.3787 2.67092 21.3257 2.72245C21.2639 2.76539 21.2109 2.80833 21.1579 2.85986C21.0961 2.91139 21.052 2.96292 20.999 3.02303C20.9548 3.07456 20.9018 3.13468 20.8665 3.1948C20.8224 3.25491 20.7782 3.31503 20.7429 3.37515C20.7076 3.44385 20.6811 3.50397 20.6458 3.57267C20.6193 3.64138 20.5928 3.7015 20.5751 3.7702C20.5486 3.84749 20.531 3.9162 20.5133 3.98491C20.5045 4.01927 20.5045 4.0622 20.4956 4.09655C20.4868 4.13092 20.4868 4.16525 20.478 4.19961C20.478 4.26831 20.4692 4.34561 20.4692 4.41431C20.4692 4.46584 20.4692 4.51737 20.478 4.5689C20.478 4.6376 20.4868 4.70631 20.5045 4.7836C20.5133 4.8523 20.531 4.92101 20.5486 4.98972C20.5751 5.05842 20.5928 5.12713 20.6193 5.19583C20.6369 5.23877 20.6634 5.28171 20.6811 5.31606L18.6501 4.55172C18.3057 4.45725 17.9701 4.37137 17.6257 4.29408C17.4403 4.25114 17.2549 4.2082 17.0694 4.16525C16.5396 4.0622 16.0009 3.98491 15.4623 3.93338C15.4446 3.93338 15.4358 3.92478 15.4181 3.92478C14.8883 3.87325 14.3673 3.84749 13.8374 3.84749C13.4489 3.84749 13.0603 3.86465 12.6806 3.89042C12.142 3.92479 11.6033 3.99348 11.0646 4.07936C10.9322 4.09652 10.7997 4.12231 10.6673 4.14807C10.3935 4.1996 10.1286 4.25971 9.87253 4.31983C9.74007 4.3542 9.60761 4.38854 9.47515 4.42289C9.3427 4.47442 9.21907 4.53454 9.09544 4.58606C8.9983 4.629 8.90117 4.67194 8.80403 4.71489C8.78638 4.72349 8.7687 4.72349 8.75988 4.73205C8.67157 4.77499 8.5921 4.80934 8.51263 4.85228C8.48613 4.86088 8.46847 4.86945 8.45081 4.87805C8.35367 4.92099 8.25654 4.97252 8.17706 5.01546C8.11525 5.04122 8.05344 5.07557 8.00045 5.10134C7.97396 5.1185 7.93864 5.1357 7.92098 5.14428C7.8415 5.18722 7.76203 5.23016 7.69138 5.2731C7.61191 5.31604 7.54126 5.35898 7.47945 5.40192C7.41764 5.44486 7.35582 5.47921 7.30284 5.52215C7.29399 5.53075 7.28519 5.53075 7.27635 5.53932C7.22336 5.57368 7.16155 5.61661 7.10857 5.65955C7.10857 5.65955 7.09972 5.66815 7.09092 5.67672C7.04677 5.71108 7.00261 5.74542 6.95846 5.77977C6.94081 5.78837 6.92313 5.80553 6.90548 5.81414C6.86133 5.8485 6.81718 5.89143 6.77302 5.92578C6.76418 5.94295 6.74653 5.95155 6.73769 5.96015C6.6847 6.01168 6.63172 6.05462 6.57874 6.10615C6.56989 6.10615 6.56989 6.11475 6.56109 6.12331C6.50811 6.16625 6.45512 6.21778 6.40214 6.26931C6.39329 6.27791 6.39329 6.28647 6.38449 6.28647C6.34034 6.32941 6.29619 6.37236 6.25203 6.42388C6.23438 6.44104 6.20788 6.45825 6.19022 6.47541C6.14607 6.52694 6.09309 6.57847 6.0401 6.63C6.03126 6.64716 6.01361 6.65576 6.00477 6.67294C5.93412 6.74165 5.87231 6.81035 5.80166 6.87905C5.79282 6.88765 5.78402 6.89622 5.77517 6.90482C5.63388 7.05082 5.48376 7.19681 5.32481 7.32564C5.16586 7.46304 4.99809 7.59187 4.8303 7.70351C4.65369 7.82375 4.48591 7.9268 4.30047 8.02986C4.12386 8.12433 3.93842 8.21021 3.74415 8.28751C3.5587 8.3648 3.36443 8.43351 3.17016 8.49362C2.79928 8.57091 2.41957 8.71691 2.09284 8.74268C2.02219 8.74268 1.94272 8.75984 1.87207 8.76844C1.7926 8.7856 1.72195 8.80281 1.65131 8.81997C1.58067 8.84573 1.51002 8.8715 1.43938 8.89726C1.36873 8.92303 1.29809 8.95738 1.22745 8.99173C1.16563 9.03467 1.09499 9.06903 1.03317 9.11197C0.97136 9.15491 0.909544 9.20643 0.856561 9.25796C0.794749 9.30091 0.732934 9.36102 0.67995 9.41255C0.626967 9.47267 0.573983 9.5242 0.529831 9.58431C0.48568 9.65302 0.432696 9.71314 0.397372 9.78184C0.353221 9.84196 0.309069 9.91066 0.273745 9.97936C0.238409 10.0567 0.203102 10.1254 0.17661 10.2027C0.150118 10.2714 0.123627 10.3487 0.0971347 10.426C0.0794875 10.4947 0.0617985 10.5634 0.0529832 10.6321C0.0529832 10.6407 0.044139 10.6492 0.044139 10.6578C0.0264916 10.7351 0.0264916 10.8382 0.0176472 10.8897C0.00880303 10.9498 0 11.0014 0 11.0615C0 11.0958 0 11.1388 0.00884412 11.1731C0.0176882 11.2332 0.0264912 11.2848 0.0441804 11.3363C0.0618276 11.3878 0.0795166 11.4394 0.105992 11.4909C0.105992 11.4995 0.105992 11.4995 0.105992 11.4995C0.132484 11.551 0.167807 11.6025 0.203127 11.6541C0.238463 11.7056 0.273775 11.7571 0.317926 11.8087C0.362078 11.8516 0.415061 11.9031 0.468045 11.9461C0.521029 11.9976 0.574012 12.0405 0.635824 12.0835C0.847758 12.2638 0.900742 12.3239 1.17449 12.4614C1.21864 12.4871 1.2628 12.5043 1.31578 12.5301C1.32462 12.5301 1.33343 12.5387 1.34227 12.5387C1.34227 12.5558 1.34227 12.5644 1.35112 12.5816C1.35996 12.6503 1.37761 12.719 1.39527 12.7877C1.41291 12.865 1.43942 12.9337 1.46592 12.9938C1.49241 13.0454 1.51007 13.0969 1.53656 13.1484C1.5454 13.1656 1.55421 13.1828 1.56305 13.1914C1.59839 13.2601 1.63369 13.3202 1.66901 13.3803C1.71317 13.4404 1.75732 13.5005 1.80147 13.5606C1.84562 13.6122 1.89861 13.6723 1.95159 13.7238C2.00458 13.7754 2.05756 13.8183 2.11937 13.8698C2.11937 13.8698 2.12822 13.8784 2.13702 13.8784C2.19001 13.9214 2.24299 13.9643 2.29597 13.9987C2.35778 14.0416 2.4196 14.076 2.49024 14.1103C2.55206 14.1447 2.6227 14.179 2.69335 14.2048C2.74633 14.2305 2.80814 14.2477 2.86996 14.2649C2.8788 14.2735 2.8876 14.2735 2.90529 14.2821C2.94063 14.2907 2.98476 14.2992 3.02009 14.3078C2.9936 14.7716 2.98475 15.2096 3.05542 15.3642C3.13489 15.5359 3.52344 15.0121 3.91198 14.4109C3.859 15.0035 3.82368 15.6991 3.91198 15.9052C4.00912 16.1199 4.53895 15.45 4.99814 14.7115C11.259 13.303 16.9724 17.5112 17.5728 23.4542C17.458 22.5267 16.2836 22.0114 15.7449 22.1402C15.48 22.7757 15.0296 23.5916 14.3055 24.0983C14.3673 23.5315 14.3409 22.9475 14.2172 22.3807C14.023 23.1708 13.6432 23.9094 13.1222 24.5449C12.2833 24.605 11.4444 24.2099 11.0029 23.6174C10.9676 23.5916 10.9587 23.5401 10.9323 23.5057C10.9058 23.4456 10.8793 23.3855 10.8616 23.3254C10.8351 23.2652 10.8175 23.2051 10.8086 23.145C10.7998 23.0849 10.7998 23.0248 10.7998 22.9561C10.7998 22.9131 10.7998 22.8702 10.7998 22.8273C10.8086 22.7671 10.8263 22.707 10.8439 22.6469C10.8616 22.5868 10.8793 22.5267 10.9058 22.4665C10.9411 22.4064 10.9676 22.3463 11.0117 22.2862C11.1618 21.874 11.1618 21.539 10.8881 21.3415C10.8351 21.3071 10.7821 21.2814 10.7203 21.2556C10.685 21.247 10.6408 21.2299 10.6055 21.2213C10.579 21.2127 10.5614 21.2041 10.5349 21.1955C10.4731 21.1783 10.4112 21.1611 10.3494 21.1525C10.2876 21.1354 10.2258 21.1268 10.164 21.1268C10.1022 21.1182 10.0315 21.1096 9.96972 21.1096C9.92556 21.1096 9.88141 21.1182 9.83726 21.1182C9.76661 21.1182 9.7048 21.1268 9.64299 21.144C9.58117 21.1526 9.51936 21.1611 9.45754 21.1783C9.39573 21.1955 9.33392 21.2127 9.2721 21.2385C9.21029 21.2642 9.15731 21.29 9.09549 21.3158C9.04251 21.3415 8.98953 21.3759 8.92771 21.4016C6.8702 22.707 8.09764 25.7644 9.5017 26.649C8.97186 26.7435 8.4332 26.8551 8.28308 26.9667C8.27424 26.9753 8.26544 26.9839 8.26544 26.9839C8.64515 27.2072 9.04252 27.3961 9.45756 27.5593C10.0227 27.7397 10.6232 27.9028 10.8881 27.9715V27.9801C11.621 28.1261 12.3628 28.1777 13.1134 28.1347C17.0253 27.8685 20.2308 24.9743 20.8136 21.1612C20.8313 21.2385 20.849 21.3072 20.8666 21.3845C20.8931 21.539 20.9284 21.7022 20.9461 21.8654C20.9461 21.8654 20.9461 21.8654 20.9461 21.874C20.9637 21.9513 20.9726 22.0286 20.9814 22.0973C20.9814 22.1145 20.9814 22.1231 20.9814 22.1317C20.9903 22.209 20.9991 22.2863 20.9991 22.355C21.0079 22.4494 21.0167 22.5439 21.0167 22.6384C21.0167 22.6813 21.0167 22.7242 21.0167 22.7758C21.0167 22.8187 21.0256 22.8702 21.0256 22.9132C21.0256 22.9647 21.0167 23.0162 21.0167 23.0678C21.0167 23.1107 21.0167 23.1537 21.0167 23.188C21.0167 23.2481 21.0079 23.2997 21.0079 23.3598C21.0079 23.3941 21.0079 23.4285 20.999 23.4714C20.999 23.5315 20.9902 23.5916 20.9902 23.6604C20.9813 23.6861 20.9813 23.7119 20.9813 23.7376C20.9725 23.8064 20.9637 23.8665 20.9548 23.9352C20.9548 23.9609 20.9548 23.9867 20.946 24.0125C20.9371 24.0983 20.9195 24.1756 20.9107 24.2615V24.2701V24.2787C20.893 24.356 20.8753 24.4419 20.8577 24.5192C20.8577 24.5278 20.8577 24.5364 20.8577 24.545C20.84 24.6223 20.8223 24.6996 20.8047 24.7768C20.8047 24.7855 20.7958 24.8026 20.7958 24.8112C20.7782 24.8885 20.7605 24.9658 20.734 25.0431C20.734 25.0517 20.734 25.0603 20.734 25.0689C20.7075 25.1547 20.6811 25.232 20.6634 25.3093C20.6545 25.3179 20.6545 25.3265 20.6545 25.3265C20.6281 25.4124 20.6016 25.4982 20.5751 25.5841C20.5397 25.67 20.5133 25.7473 20.4779 25.8332C20.4426 25.9191 20.4161 26.0049 20.3808 26.0822C20.3455 26.1681 20.3102 26.2454 20.2748 26.3313H20.266C20.2306 26.4086 20.1953 26.4945 20.1512 26.5718C20.1423 26.5975 20.1335 26.6147 20.1247 26.6319C20.1158 26.6405 20.1159 26.649 20.107 26.6576C19.5331 27.7827 18.6853 28.7703 17.6257 29.5433C17.555 29.5862 17.4844 29.6377 17.4137 29.6893C17.3961 29.7064 17.3696 29.715 17.3519 29.7322C17.2901 29.7751 17.2283 29.8181 17.1576 29.861L17.1841 29.9125H17.193C17.3166 29.8954 17.4402 29.8782 17.5639 29.861H17.5727C17.8023 29.8266 18.0319 29.7837 18.2615 29.7408C18.3233 29.7322 18.3939 29.715 18.4558 29.6978C18.4999 29.6892 18.5352 29.6807 18.5794 29.6721C18.6412 29.6635 18.703 29.6463 18.7648 29.6377C18.8178 29.6205 18.8708 29.6119 18.9238 29.5948C19.8068 29.3886 20.6634 29.1052 21.4846 28.7703C20.0806 30.6339 18.1997 32.1369 16.0009 33.1245C17.0164 33.0558 18.0319 32.8926 19.0121 32.6178C22.5708 31.5958 25.5643 29.2684 27.3569 26.1337C26.9949 28.1176 26.1825 30.007 24.9815 31.6559C25.8381 31.1063 26.624 30.4708 27.3393 29.7494C29.3173 27.7397 30.6154 25.1891 31.0569 22.4494C31.3572 23.8064 31.4455 25.2062 31.313 26.5889C37.6887 17.9407 31.8429 8.97467 29.3968 6.61293C29.3879 6.59577 29.3791 6.58717 29.3791 6.56999C29.3703 6.57859 29.3703 6.57859 29.3703 6.58716C29.3703 6.57856 29.3703 6.57856 29.3615 6.56999C29.3615 6.67305 29.3526 6.77611 29.3438 6.87917C29.3173 7.07669 29.2908 7.26563 29.2555 7.45457C29.2113 7.64351 29.1584 7.83244 29.1054 8.02139C29.0436 8.20173 28.9729 8.39067 28.8934 8.57103C28.814 8.74279 28.7257 8.92314 28.6285 9.0949C28.5314 9.25808 28.4254 9.42984 28.3106 9.58442C28.1958 9.7476 28.0722 9.90219 27.9486 10.0482C27.8161 10.2028 27.6748 10.3402 27.5335 10.4776C27.4452 10.5549 27.3658 10.6236 27.2775 10.6923C27.2068 10.7524 27.145 10.8039 27.0743 10.8641C26.9154 10.9843 26.7565 11.0959 26.5798 11.199C26.4121 11.302 26.2355 11.4051 26.0588 11.491C25.8734 11.5769 25.688 11.6542 25.5025 11.7315C25.3171 11.8002 25.1228 11.8603 24.9285 11.9118C24.7343 11.9633 24.5312 12.0063 24.3369 12.0406C24.1338 12.075 23.9307 12.0922 23.7364 12.1093C23.5951 12.1179 23.4538 12.1265 23.3125 12.1265C23.1094 12.1265 22.9063 12.1093 22.7121 12.0921C22.509 12.075 22.3059 12.0492 22.1116 12.0062C21.9085 11.9719 21.7142 11.9204 21.5199 11.8603H21.5111C21.7054 11.8431 21.8996 11.8259 22.0939 11.7915C22.297 11.7572 22.4913 11.7143 22.6856 11.6627C22.8798 11.6112 23.0741 11.5511 23.2596 11.4824C23.4538 11.4137 23.6393 11.3278 23.8159 11.2419C24.0013 11.156 24.1691 11.0616 24.3457 10.9585C24.5135 10.8469 24.6813 10.7352 24.8402 10.615C24.9992 10.4947 25.1493 10.3659 25.2906 10.2285C25.4407 10.0997 25.5732 9.95369 25.7056 9.80769C25.8381 9.65311 25.9617 9.49852 26.0765 9.34393C26.0941 9.31816 26.1118 9.28382 26.1295 9.25805C26.2178 9.12064 26.3061 8.98323 26.3856 8.84582C26.4827 8.67405 26.571 8.50229 26.6505 8.32194C26.73 8.14159 26.8006 7.96124 26.8624 7.7723C26.9242 7.59195 26.9684 7.40301 27.0125 7.21408C27.0479 7.01655 27.0832 6.82761 27.1008 6.63867C27.1185 6.44114 27.1362 6.24362 27.1362 6.05468C27.1362 5.91727 27.1273 5.77986 27.1185 5.64245C27.1009 5.44492 27.0744 5.25598 27.0479 5.06704C27.0125 4.86952 26.9684 4.68058 26.9154 4.49164C26.8536 4.31129 26.7918 4.12235 26.7212 3.942C26.6505 3.76165 26.5622 3.5813 26.4739 3.40953C26.3768 3.23777 26.2796 3.06601 26.1737 2.90284C26.0589 2.73966 25.9441 2.58508 25.8204 2.43049C25.688 2.28449 25.5555 2.13849 25.4142 1.99249C25.3436 1.92379 25.2641 1.8465 25.1846 1.77779C24.7873 1.47721 24.3722 1.1938 23.9572 0.936154C23.8954 0.901789 23.8424 0.876037 23.7806 0.850271C23.4892 0.669923 23.2154 0.57545 22.9417 0.489571L22.9417 0.489524Z"/></g><defs><clipPath id="clip0_45_117"><rect width="34.194" height="33.125" fill="#fff"/></clipPath></defs></svg>