<svg xmlns="http://www.w3.org/2000/svg" width="52" height="29" fill="none" viewBox="0 0 52 29"><path fill="#fff" d="M12.2698 7.56077H22.0775V8.28111H13.1688V13.7026H21.5462V14.423H13.1688V20.3752H22.1796V21.0956H12.2698V7.56077ZM22.9561 7.56077H23.9982L28.6159 13.5131L33.3359 7.56077L39.7558 0L29.2085 14.1386L34.6436 21.0956H33.5606L28.6159 14.7642L23.6508 21.0956H22.5883L28.0643 14.1386L22.9561 7.56077ZM35.0318 8.28111V7.56077H46.2085V8.28111H41.0594V21.0956H40.1604V8.28111H35.0318ZM0 7.56077H1.1238L16.6203 28.9891L10.2163 21.0956L0.939902 8.58441L0.899037 21.0956H0V7.56077ZM46.1179 20.1579C45.9342 20.1579 45.7964 20.0263 45.7964 19.8564C45.7964 19.6864 45.9342 19.5549 46.1179 19.5549C46.3037 19.5549 46.4393 19.6864 46.4393 19.8564C46.4393 20.0263 46.3037 20.1579 46.1179 20.1579ZM47.0013 19.3647H47.4824C47.4889 19.6055 47.6792 19.7674 47.959 19.7674C48.2717 19.7674 48.4489 19.5934 48.4489 19.2676V17.2039H48.9387V19.2696C48.9387 19.8564 48.5713 20.1943 47.9634 20.1943C47.3927 20.1943 47.0013 19.8665 47.0013 19.3647ZM49.5794 19.3384H50.0648C50.1063 19.6156 50.3994 19.7916 50.8214 19.7916C51.215 19.7916 51.5036 19.6035 51.5036 19.3445C51.5036 19.1219 51.32 18.9884 50.9023 18.8974L50.4956 18.8063C49.9249 18.6829 49.6646 18.428 49.6646 17.999C49.6646 17.479 50.1238 17.1331 50.8126 17.1331C51.4533 17.1331 51.9213 17.479 51.9497 17.9707H51.473C51.4271 17.7016 51.1734 17.5337 50.8061 17.5337C50.419 17.5337 50.161 17.7057 50.161 17.9687C50.161 18.1771 50.3272 18.2964 50.7383 18.3855L51.086 18.4644C51.7332 18.604 52 18.8468 52 19.2858C52 19.8443 51.5321 20.1943 50.7842 20.1943C50.0845 20.1943 49.6143 19.8604 49.5794 19.3384Z"/></svg>