<svg width="50" height="31" viewBox="0 0 50 31" fill="none" xmlns="http://www.w3.org/2000/svg">
<g clip-path="url(#clip0_45_186)">
<path d="M24.7178 30.9106C24.5486 30.9106 24.3906 30.865 24.2439 30.7851L22.743 29.8837C22.5172 29.7581 22.6301 29.7125 22.6979 29.6897C23.0025 29.587 23.059 29.5641 23.3749 29.3817C23.4088 29.3588 23.454 29.3702 23.4878 29.393L24.6389 30.0891C24.684 30.1119 24.7405 30.1119 24.7743 30.0891L29.2771 27.4533C29.3222 27.4305 29.3449 27.3848 29.3449 27.3278V22.0677C29.3449 22.0105 29.3222 21.965 29.2771 21.9421L24.7743 19.3177C24.7292 19.2948 24.6727 19.2948 24.6389 19.3177L20.1361 21.9421C20.091 21.9649 20.0683 22.022 20.0683 22.0676V27.3277C20.0683 27.3734 20.091 27.4304 20.1361 27.4533L21.3662 28.1721C22.032 28.5144 22.4496 28.115 22.4496 27.7157V22.524C22.4496 22.4556 22.506 22.387 22.585 22.387H23.1605C23.2283 22.387 23.2959 22.4441 23.2959 22.524V27.7157C23.2959 28.6171 22.8107 29.142 21.9643 29.142C21.7047 29.142 21.5017 29.142 20.926 28.8567L19.7411 28.1721C19.4477 28.001 19.2672 27.6814 19.2672 27.3391V22.079C19.2672 21.7367 19.4477 21.4172 19.7411 21.2461L24.2439 18.6103C24.5261 18.4505 24.9098 18.4505 25.1919 18.6103L29.6946 21.2461C29.988 21.4172 30.1687 21.7367 30.1687 22.079V27.3391C30.1687 27.6814 29.988 28.001 29.6946 28.1721L25.1919 30.8079C25.0451 30.8764 24.8759 30.9106 24.7179 30.9106H24.7178ZM26.1059 27.2935C24.1311 27.2935 23.7248 26.3807 23.7248 25.6048C23.7248 25.5363 23.7812 25.4679 23.8602 25.4679H24.4471C24.5147 25.4679 24.5712 25.5135 24.5712 25.582C24.6615 26.1867 24.921 26.4834 26.1172 26.4834C27.0652 26.4834 27.4716 26.2666 27.4716 25.7531C27.4716 25.4564 27.3586 25.2397 25.8803 25.0914C24.6502 24.9658 23.8828 24.692 23.8828 23.6993C23.8828 22.775 24.6503 22.2273 25.9367 22.2273C27.3811 22.2273 28.0922 22.7294 28.1825 23.8247C28.1825 23.8591 28.1712 23.8932 28.1486 23.9275C28.126 23.9503 28.0922 23.9731 28.0583 23.9731H27.4715C27.415 23.9731 27.3586 23.9275 27.3474 23.8704C27.2119 23.2429 26.8621 23.0375 25.9367 23.0375C24.8985 23.0375 24.7743 23.4026 24.7743 23.6764C24.7743 24.0073 24.921 24.11 26.3203 24.2926C27.7084 24.4752 28.363 24.7376 28.363 25.7189C28.3517 26.723 27.5392 27.2935 26.1059 27.2935Z" fill="#539E43"/>
<path d="M10.7468 10.3378C10.7468 10.1325 10.6339 9.93837 10.4534 9.83569L5.66849 7.05162C5.5894 7.00591 5.49918 6.9831 5.40895 6.97165H5.36374C5.27352 6.97165 5.1832 7.00591 5.10421 7.05162L0.319297 9.83569C0.138657 9.93837 0.0258789 10.1324 0.0258789 10.3378L0.0372055 17.8229C0.0372055 17.9256 0.0936434 18.0283 0.183866 18.074C0.274186 18.1311 0.386964 18.1311 0.466055 18.074L3.30992 16.4309C3.49046 16.3282 3.60333 16.1342 3.60333 15.9289V12.4259C3.60333 12.2205 3.71611 12.0265 3.89675 11.9239L5.10421 11.2164C5.19453 11.1593 5.29608 11.1364 5.39763 11.1364C5.49918 11.1364 5.60073 11.1593 5.67982 11.2164L6.88727 11.9239C7.06791 12.0265 7.18069 12.2204 7.18069 12.4259V15.9289C7.18069 16.1342 7.29357 16.3282 7.47411 16.4309L10.318 18.074C10.4083 18.1311 10.5211 18.1311 10.6114 18.074C10.7017 18.0283 10.7581 17.9256 10.7581 17.8229L10.7468 10.3378ZM33.746 0.0342598C33.6558 -0.0114504 33.5429 -0.0114504 33.4638 0.0342598C33.3736 0.0913235 33.3172 0.182546 33.3172 0.285222V7.70202C33.3172 7.77044 33.2834 7.83886 33.2156 7.88457C33.1479 7.91873 33.0802 7.91873 33.0125 7.88457L31.8163 7.18855C31.7286 7.13806 31.6294 7.11151 31.5285 7.11151C31.4276 7.11151 31.3284 7.13806 31.2407 7.18855L26.4558 9.98408C26.2752 10.0868 26.1624 10.2808 26.1624 10.4861V16.0657C26.1624 16.2711 26.2752 16.4652 26.4558 16.5678L31.2407 19.3634C31.3284 19.4138 31.4276 19.4404 31.5285 19.4404C31.6294 19.4404 31.7286 19.4138 31.8163 19.3634L36.6012 16.5678C36.7817 16.4652 36.8946 16.2712 36.8946 16.0657V2.15658C36.8946 1.93977 36.7817 1.74588 36.6012 1.6431L33.7461 0.0342598H33.746ZM33.3059 14.2287C33.3059 14.2858 33.2834 14.3314 33.2382 14.3542L31.6019 15.3126C31.579 15.3239 31.5539 15.3298 31.5285 15.3298C31.5031 15.3298 31.478 15.3239 31.4551 15.3126L29.8188 14.3542C29.7736 14.3314 29.751 14.2743 29.751 14.2287V12.3117C29.751 12.2547 29.7736 12.2091 29.8188 12.1863L31.4551 11.2277C31.478 11.2165 31.5031 11.2106 31.5285 11.2106C31.5539 11.2106 31.579 11.2165 31.6019 11.2277L33.2382 12.1863C33.2834 12.209 33.3059 12.2661 33.3059 12.3117V14.2287ZM49.6694 12.2661C49.85 12.1635 49.9516 11.9695 49.9516 11.764V10.4062C49.9516 10.2009 49.8387 10.0069 49.6694 9.90421L44.9184 7.12013C44.8307 7.06966 44.7315 7.04312 44.6306 7.04312C44.5297 7.04312 44.4305 7.06966 44.3428 7.12013L39.5579 9.91556C39.3773 10.0182 39.2645 10.2122 39.2645 10.4177V15.9973C39.2645 16.2026 39.3773 16.3966 39.5579 16.4993L44.309 19.2378C44.4896 19.3405 44.7039 19.3405 44.8732 19.2378L47.7509 17.6177C47.8412 17.572 47.8977 17.4693 47.8977 17.3666C47.8977 17.2639 47.8412 17.1613 47.7509 17.1156L42.9434 14.32C42.8532 14.2631 42.7968 14.1717 42.7968 14.0691V12.3233C42.7968 12.2206 42.8532 12.1179 42.9434 12.0722L44.4444 11.205C44.4883 11.1771 44.5392 11.1622 44.5911 11.1622C44.643 11.1622 44.6939 11.1771 44.7378 11.205L46.2387 12.0722C46.329 12.1293 46.3854 12.2205 46.3854 12.3233V13.6925C46.3854 13.7952 46.4419 13.8979 46.5321 13.9435C46.6224 14.0006 46.7352 14.0006 46.8255 13.9435L49.6694 12.2661Z" fill="#333333"/>
<path d="M44.5573 12.0037C44.574 11.9926 44.5936 11.9866 44.6137 11.9866C44.6337 11.9866 44.6533 11.9926 44.6701 12.0037L45.5842 12.54C45.6181 12.5627 45.6406 12.597 45.6406 12.6427V13.7152C45.6406 13.7608 45.6181 13.7951 45.5842 13.8179L44.6701 14.3542C44.6533 14.3653 44.6337 14.3713 44.6137 14.3713C44.5936 14.3713 44.574 14.3653 44.5573 14.3542L43.6431 13.8179C43.6093 13.7951 43.5867 13.7608 43.5867 13.7152V12.6427C43.5867 12.597 43.6093 12.5627 43.6431 12.54L44.5573 12.0037Z" fill="#539E43"/>
<mask id="mask0_45_186" style="mask-type:alpha" maskUnits="userSpaceOnUse" x="13" y="7" width="11" height="13">
<path d="M18.748 7.14293C18.6603 7.09246 18.5612 7.06593 18.4603 7.06593C18.3594 7.06593 18.2602 7.09246 18.1725 7.14293L13.4215 9.91546C13.2408 10.0181 13.1393 10.2121 13.1393 10.4175V15.9744C13.1393 16.1797 13.2522 16.3737 13.4215 16.4764L18.1725 19.2491C18.2602 19.2996 18.3594 19.3261 18.4603 19.3261C18.5612 19.3261 18.6603 19.2996 18.748 19.2491L23.4991 16.4764C23.6797 16.3737 23.7813 16.1797 23.7813 15.9744V10.4176C23.7813 10.2122 23.6684 10.0182 23.4991 9.91556L18.748 7.14293Z" fill="white"/>
</mask>
<g mask="url(#mask0_45_186)">
<path d="M18.748 7.14293C18.6603 7.09246 18.5612 7.06593 18.4603 7.06593C18.3594 7.06593 18.2602 7.09246 18.1725 7.14293L13.4215 9.91546C13.2408 10.0181 13.1393 10.2121 13.1393 10.4175V15.9744C13.1393 16.1797 13.2522 16.3737 13.4215 16.4764L18.1725 19.2491C18.2602 19.2996 18.3594 19.3261 18.4603 19.3261C18.5612 19.3261 18.6603 19.2996 18.748 19.2491L23.4991 16.4764C23.6797 16.3737 23.7813 16.1797 23.7813 15.9744V10.4176C23.7813 10.2122 23.6684 10.0182 23.4991 9.91556L18.748 7.14293Z" fill="url(#paint0_linear_45_186)"/>
<path d="M23.5104 9.91556L18.7368 7.14293C18.6899 7.11898 18.6407 7.09987 18.59 7.08587L13.2408 16.3511C13.2852 16.4058 13.3387 16.4522 13.3989 16.4881L18.1725 19.2608C18.3079 19.3406 18.4659 19.3635 18.6126 19.3177L23.6346 10.0298C23.6007 9.98417 23.5555 9.94982 23.5104 9.91566V9.91556Z" fill="url(#paint1_linear_45_186)"/>
<path fill-rule="evenodd" clip-rule="evenodd" d="M23.5217 16.4765C23.6571 16.3966 23.7587 16.2597 23.8039 16.1114L18.5674 7.07442C18.432 7.05161 18.2852 7.06297 18.1612 7.14284L13.4214 9.90421L18.5335 19.3291C18.6078 19.3168 18.6801 19.2938 18.7479 19.2607L23.5216 16.4766L23.5217 16.4765Z" fill="url(#paint2_linear_45_186)"/>
<path fill-rule="evenodd" clip-rule="evenodd" d="M23.5217 16.4765L18.7593 19.2492C18.6921 19.2839 18.6197 19.307 18.5449 19.3176L18.6352 19.4888L23.9167 16.3967V16.3282L23.7812 16.1C23.7587 16.2597 23.6571 16.3966 23.5217 16.4765Z" fill="url(#paint3_linear_45_186)"/>
<path fill-rule="evenodd" clip-rule="evenodd" d="M23.5217 16.4765L18.7593 19.2492C18.6921 19.2839 18.6197 19.307 18.5449 19.3176L18.6352 19.4888L23.9167 16.3967V16.3282L23.7812 16.1C23.7587 16.2597 23.6571 16.3966 23.5217 16.4765Z" fill="url(#paint4_linear_45_186)"/>
</g>
</g>
<defs>
<linearGradient id="paint0_linear_45_186" x1="20.3959" y1="9.20987" x2="15.1062" y2="17.4304" gradientUnits="userSpaceOnUse">
<stop stop-color="#41873F"/>
<stop offset="0.3288" stop-color="#418B3D"/>
<stop offset="0.6352" stop-color="#419637"/>
<stop offset="0.9319" stop-color="#3FA92D"/>
<stop offset="1" stop-color="#3FAE2A"/>
</linearGradient>
<linearGradient id="paint1_linear_45_186" x1="17.7389" y1="13.8469" x2="30.8463" y2="6.80378" gradientUnits="userSpaceOnUse">
<stop offset="0.1376" stop-color="#41873F"/>
<stop offset="0.4032" stop-color="#54A044"/>
<stop offset="0.7136" stop-color="#66B848"/>
<stop offset="0.9081" stop-color="#6CC04A"/>
</linearGradient>
<linearGradient id="paint2_linear_45_186" x1="12.9657" y1="13.1962" x2="23.9595" y2="13.1962" gradientUnits="userSpaceOnUse">
<stop offset="0.09192" stop-color="#6CC04A"/>
<stop offset="0.2864" stop-color="#66B848"/>
<stop offset="0.5968" stop-color="#54A044"/>
<stop offset="0.8624" stop-color="#41873F"/>
</linearGradient>
<linearGradient id="paint3_linear_45_186" x1="12.9658" y1="17.8037" x2="23.9595" y2="17.8037" gradientUnits="userSpaceOnUse">
<stop offset="0.09192" stop-color="#6CC04A"/>
<stop offset="0.2864" stop-color="#66B848"/>
<stop offset="0.5968" stop-color="#54A044"/>
<stop offset="0.8624" stop-color="#41873F"/>
</linearGradient>
<linearGradient id="paint4_linear_45_186" x1="25.5611" y1="8.94712" x2="22.7161" y2="23.6914" gradientUnits="userSpaceOnUse">
<stop stop-color="#41873F"/>
<stop offset="0.3288" stop-color="#418B3D"/>
<stop offset="0.6352" stop-color="#419637"/>
<stop offset="0.9319" stop-color="#3FA92D"/>
<stop offset="1" stop-color="#3FAE2A"/>
</linearGradient>
<clipPath id="clip0_45_186">
<rect width="50" height="31" fill="white"/>
</clipPath>
</defs>
</svg>
