<svg xmlns="http://www.w3.org/2000/svg" width="37" height="34" fill="none" viewBox="0 0 37 34"><g clip-path="url(#clip0_45_163)"><path fill="#61DAFB" d="M18.5 20.0884C20.3213 20.0884 21.7978 18.612 21.7978 16.7906C21.7978 14.9693 20.3213 13.4928 18.5 13.4928C16.6787 13.4928 15.2022 14.9693 15.2022 16.7906C15.2022 18.612 16.6787 20.0884 18.5 20.0884Z"/><path stroke="#61DAFB" d="M18.5 23.5471C28.273 23.5471 36.1957 20.5221 36.1957 16.7906C36.1957 13.0591 28.273 10.0341 18.5 10.0341C8.72696 10.0341 0.804352 13.0591 0.804352 16.7906C0.804352 20.5221 8.72696 23.5471 18.5 23.5471Z"/><path stroke="#61DAFB" d="M12.6487 20.1689C17.5352 28.6326 24.1162 33.9813 27.3478 32.1155C30.5794 30.2497 29.2379 21.8761 24.3513 13.4124C19.4648 4.94866 12.8838 -0.400023 9.65219 1.46574C6.42059 3.3315 7.76218 11.7052 12.6487 20.1689Z"/><path stroke="#61DAFB" d="M12.6487 13.4124C7.76217 21.8761 6.42059 30.2497 9.65218 32.1155C12.8838 33.9813 19.4648 28.6326 24.3513 20.1689C29.2379 11.7052 30.5794 3.3315 27.3478 1.46574C24.1162 -0.400021 17.5352 4.94866 12.6487 13.4124Z"/></g><defs><clipPath id="clip0_45_163"><rect width="37" height="32.919" fill="#fff" transform="translate(0 0.330872)"/></clipPath></defs></svg>