<svg width="34" height="34" viewBox="0 0 34 34" fill="none" xmlns="http://www.w3.org/2000/svg">
<path d="M30.6797 0H3.32031C1.48655 0 0 1.48655 0 3.32031V30.6797C0 32.5134 1.48655 34 3.32031 34H30.6797C32.5134 34 34 32.5134 34 30.6797V3.32031C34 1.48655 32.5134 0 30.6797 0Z" fill="#3178C6"/>
<path fill-rule="evenodd" clip-rule="evenodd" d="M21.0508 27.0273V30.3477C21.5887 30.6266 22.2461 30.8324 22.9766 30.9719C23.707 31.1113 24.5039 31.1777 25.3008 31.1777C26.0977 31.1777 26.8281 31.1047 27.5586 30.952C28.2891 30.7992 28.8867 30.5469 29.418 30.2215C29.9559 29.8695 30.4141 29.4246 30.6797 28.827C30.9453 28.2293 31.1512 27.5652 31.1512 26.702C31.1512 26.0977 31.0582 25.573 30.8789 25.1082C30.6996 24.6434 30.4406 24.2449 30.082 23.9129C29.7434 23.5609 29.3516 23.2488 28.8867 22.9832C28.4219 22.7176 27.8906 22.4387 27.293 22.1863C26.8547 22.007 26.4961 21.8344 26.0977 21.6617C25.7523 21.4891 25.4535 21.3164 25.2344 21.1438C24.9887 20.9645 24.8027 20.7785 24.6699 20.5859C24.5371 20.3867 24.4707 20.1676 24.4707 19.9219C24.4707 19.6961 24.5298 19.4902 24.65 19.3043C24.7702 19.1184 24.9355 18.9656 25.148 18.8328C25.3605 18.7 25.6262 18.6004 25.9449 18.5273C26.257 18.4543 26.6023 18.4211 27.0074 18.4211C27.2863 18.4211 27.5785 18.4417 27.8707 18.4835C28.1762 18.5254 28.4883 18.5898 28.8004 18.6761C29.1125 18.7624 29.418 18.8687 29.7301 19.0015C30.0223 19.1343 30.2945 19.287 30.527 19.4597V16.3386C30.0223 16.146 29.4645 15.9999 28.8668 15.907C28.2691 15.814 27.6051 15.7675 26.8082 15.7675C26.0113 15.7675 25.2809 15.8538 24.5504 16.0198C23.8199 16.1859 23.2223 16.4515 22.691 16.8167C22.1531 17.1753 21.7613 17.6136 21.4293 18.2113C21.1172 18.7691 20.9645 19.4066 20.9645 20.2034C20.9645 21.1995 21.25 22.0628 21.8277 22.7269C22.3988 23.4573 23.2887 23.9886 24.4176 24.5198C24.8758 24.7058 25.2809 24.8917 25.6793 25.071C26.0777 25.2503 26.4098 25.4363 26.6754 25.6288C26.9609 25.8214 27.1867 26.0339 27.3395 26.2597C27.5055 26.4855 27.5918 26.7511 27.5918 27.0566C27.5918 27.2691 27.54 27.4683 27.4391 27.6542C27.3381 27.8402 27.1801 27.9995 26.9676 28.1323C26.7551 28.2652 26.4961 28.3714 26.1707 28.4511C25.8586 28.5241 25.5066 28.564 25.0418 28.564C24.3113 28.564 23.5809 28.4378 22.9168 28.1855C22.1863 27.9331 21.5223 27.5546 20.9246 27.0566L21.0508 27.0273ZM15.4727 18.8594H19.7227V16.1367H7.83594V18.8594H12.0859V31.0117H15.4727V18.8594Z" fill="white"/>
</svg>
