<svg width="34" height="34" viewBox="0 0 34 34" fill="none" xmlns="http://www.w3.org/2000/svg">
<g clip-path="url(#clip0_45_245)">
<path d="M1.41666 1.42007H32.5833V31.7367H1.41666V1.42007Z" fill="#2E001E"/>
<path d="M0 0.00340271V33.1534H34V0.00340271H0ZM1.41667 1.42007H32.5833V31.7367H1.41667V1.42007Z" fill="#FF2BC2"/>
<path d="M24.6925 13.9292C24.48 13.8301 24.2108 13.7876 23.8708 13.7876C22.0858 13.7876 20.8958 15.1617 20.8958 17.4426C20.8958 20.0492 22.1142 21.0976 23.7008 21.0976C24.0408 21.0976 24.4092 21.0551 24.6783 20.9417V13.9292H24.6925ZM18.3458 17.5559C18.3458 14.2551 20.4708 11.6767 23.9558 11.6767C24.2533 11.6767 24.4092 11.6767 24.6925 11.7051V8.02173C24.6925 7.93673 24.7633 7.88006 24.8342 7.88006H27.115C27.2283 7.88006 27.2567 7.92256 27.2567 7.9934V20.9417C27.2567 21.3242 27.2567 21.8059 27.3275 22.3301C27.3275 22.4292 27.3275 22.4434 27.2425 22.4859C26.0525 23.0526 24.8058 23.3076 23.6158 23.3076C20.5417 23.3076 18.3458 21.4092 18.3458 17.5559ZM13.515 15.2609L17.4817 22.9534C17.5525 23.0667 17.51 23.1801 17.3967 23.1801H14.9317C14.7758 23.1801 14.705 23.1376 14.6342 22.9959C13.7275 21.1259 12.8067 19.1851 11.8575 17.1734H11.8292C10.9792 19.0717 10.0442 21.1401 9.1375 23.0101C9.06666 23.1234 8.99583 23.1659 8.8825 23.1659H6.53083C6.38917 23.1659 6.375 23.0526 6.44583 22.9676L10.3275 15.5017L6.57333 8.0784C6.48833 7.96506 6.57333 7.8659 6.6725 7.8659H9.10916C9.25083 7.8659 9.32166 7.89423 9.36416 8.02173C10.2567 9.9059 11.1633 11.7617 12.0133 13.6601H12.0417C12.8633 11.7901 13.77 9.9059 14.6342 8.05006C14.705 7.93673 14.7475 7.8659 14.8892 7.8659H17.17C17.2833 7.8659 17.3258 7.9509 17.255 8.0784L13.515 15.2609Z" fill="#FF2BC2"/>
</g>
<defs>
<clipPath id="clip0_45_245">
<rect width="34" height="33.1568" fill="white"/>
</clipPath>
</defs>
</svg>
