<svg xmlns="http://www.w3.org/2000/svg" width="167" height="29" fill="none" viewBox="0 0 167 29"><path fill="#86BC25" d="M157.78 24.4117C157.78 22.2248 159.76 20.4508 162.195 20.4508C164.634 20.4508 166.611 22.2248 166.611 24.4117C166.611 26.5986 164.634 28.3726 162.195 28.3726C159.76 28.3726 157.78 26.5986 157.78 24.4117Z"/><path fill="#fff" d="M16.9492 13.921C16.9492 11.4117 16.4095 9.54956 15.3275 8.33675C14.2456 7.12617 12.6065 6.52033 10.4016 6.52033H8.05736V21.8662H9.85189C12.2993 21.8662 14.0939 21.2135 15.2355 19.9081C16.3771 18.6027 16.9492 16.6066 16.9492 13.921ZM25.3112 13.6599C25.3112 18.2311 23.9408 21.7535 21.2011 24.226C18.4614 26.7007 14.61 27.937 9.64794 27.937H0V0.543312H10.3207C15.1062 0.543312 18.8022 1.66798 21.4063 3.91508C24.0092 6.16441 25.3112 9.41121 25.3112 13.6599Z"/><path fill="#fff" d="M52.03 27.9377H59.7056V0.428017H52.03V27.9377Z"/><path fill="#fff" d="M70.4872 17.6731C70.4872 19.427 70.7422 20.7648 71.2521 21.6842C71.7632 22.6046 72.62 23.0643 73.8239 23.0643C75.0152 23.0643 75.8559 22.6046 76.3471 21.6842C76.8371 20.7648 77.0821 19.427 77.0821 17.6731C77.0821 15.9281 76.8334 14.6126 76.3372 13.7245C75.8385 12.833 74.9891 12.3878 73.7841 12.3878C72.6064 12.3878 71.7632 12.8308 71.2521 13.7144C70.7422 14.5981 70.4872 15.9169 70.4872 17.6731ZM84.8945 17.6731C84.8945 21.0147 83.9183 23.6211 81.9608 25.49C80.0046 27.3599 77.2649 28.2949 73.7455 28.2949C70.3691 28.2949 67.6829 27.3387 65.6881 25.4264C63.6909 23.5151 62.6935 20.931 62.6935 17.6731C62.6935 14.3415 63.671 11.753 65.6284 9.90753C67.5859 8.0621 70.3305 7.13938 73.8637 7.13938C76.0487 7.13938 77.98 7.56671 79.6539 8.42025C81.3291 9.27491 82.6212 10.4978 83.5303 12.091C84.4406 13.6832 84.8945 15.5442 84.8945 17.6731Z"/><path fill="#fff" d="M87.9418 27.9377H95.6175V7.50409H87.9418V27.9377Z"/><path fill="#fff" d="M87.9418 5.03082H95.6175V0.426163H87.9418V5.03082Z"/><path fill="#fff" d="M111.171 22.7222C112.207 22.7222 113.442 22.4868 114.882 22.0182V27.1595C113.846 27.5667 112.863 27.8591 111.927 28.032C110.992 28.2072 109.895 28.2942 108.638 28.2942C106.061 28.2942 104.203 27.714 103.063 26.5536C101.926 25.3933 101.358 23.6114 101.358 21.2081V12.7843H98.6694V7.5013H101.358V2.28411L109.092 1.07688V7.5013H113.989V12.7843H109.092V20.7384C109.092 22.0606 109.786 22.7222 111.171 22.7222Z"/><path fill="#fff" d="M128.938 22.7222C129.974 22.7222 131.208 22.4868 132.649 22.0182V27.1595C131.615 27.5667 130.629 27.8591 129.694 28.032C128.758 28.2072 127.663 28.2942 126.405 28.2942C123.828 28.2942 121.97 27.714 120.832 26.5536C119.693 25.3933 119.125 23.6114 119.125 21.2081V12.7843H116.433V7.5013H119.125V2.20489L126.859 1.07688V7.5013H131.759V12.7843H126.859V20.7384C126.859 22.0606 127.553 22.7222 128.938 22.7222Z"/><path fill="#fff" d="M142.335 15.1838C142.441 14.0659 142.796 13.2458 143.404 12.7214C144.015 12.1981 144.77 11.937 145.672 11.937C146.654 11.937 147.436 12.2316 148.017 12.8218C148.601 13.4109 148.905 14.1975 148.929 15.1838H142.335ZM153.159 9.54823C151.336 7.94268 148.747 7.14046 145.398 7.14046C141.877 7.14046 139.169 8.06206 137.27 9.90861C135.373 11.7541 134.423 14.4017 134.423 17.8527C134.423 21.1943 135.449 23.7717 137.496 25.5803C139.544 27.3889 142.421 28.2949 146.124 28.2949C147.904 28.2949 149.435 28.1856 150.717 27.9691C151.992 27.7549 153.226 27.3677 154.424 26.8076L153.245 22.2041C152.373 22.5221 151.545 22.7675 150.764 22.9293C149.635 23.1636 148.395 23.2819 147.047 23.2819C145.566 23.2819 144.398 22.9572 143.542 22.3079C142.687 21.6585 142.229 20.7614 142.178 19.62H155.899V16.4837C155.899 13.4645 154.985 11.1527 153.159 9.54823Z"/><path fill="#fff" d="M35.4982 15.1838C35.6027 14.0659 35.9596 13.2458 36.5677 12.7214C37.1771 12.1981 37.932 11.937 38.8361 11.937C39.8161 11.937 40.5983 12.2316 41.1803 12.8218C41.7636 13.4109 42.0682 14.1975 42.0931 15.1838H35.4982ZM46.3239 9.54823C44.4995 7.94268 41.9103 7.14046 38.56 7.14046C35.0393 7.14046 32.3308 8.06206 30.4342 9.90861C28.5365 11.7541 27.5864 14.4017 27.5864 17.8527C27.5864 21.1943 28.6111 23.7717 30.6606 25.5803C32.7076 27.3889 35.584 28.2949 39.2875 28.2949C41.0671 28.2949 42.598 28.1856 43.8802 27.9691C45.1549 27.7549 46.3898 27.3677 47.5874 26.8076L46.4085 22.2041C45.5379 22.5221 44.7097 22.7675 43.9287 22.9293C42.797 23.1636 41.5584 23.2819 40.2103 23.2819C38.7316 23.2819 37.5614 22.9572 36.7058 22.3079C35.8489 21.6585 35.3938 20.7614 35.3415 19.62H49.0623V16.4837C49.0623 13.4645 48.1495 11.1527 46.3239 9.54823Z"/></svg>