<svg width="94" height="79" viewBox="0 0 94 79" fill="none" xmlns="http://www.w3.org/2000/svg">
<path d="M0.0588379 37.3489H19.6778V42.1125H5.73331V47.0607H17.9952V51.8244H5.73331V56.9403H19.8568V61.7208H0.0588379V37.3489Z" fill="white"/>
<path d="M29.6839 36.3096H24.0452V61.7214H29.6839V36.3096Z" fill="white"/>
<path d="M47.531 50.9192C47.1909 48.5541 45.7051 46.9439 43.3423 46.9439C40.9973 46.9439 39.4758 48.5038 39.0283 50.9192H47.531ZM33.4791 52.4959V52.4288C33.4791 47.0949 37.5425 42.717 43.3244 42.717C49.9655 42.717 53.0265 47.5645 53.0265 52.8482C53.0265 53.2675 52.9907 53.7539 52.9549 54.2404H39.0999C39.6548 56.639 41.4448 57.897 43.9688 57.897C45.8663 57.897 47.2446 57.3435 48.8019 55.9848L52.0419 58.6686C50.1803 60.8323 47.5131 62.1574 43.8972 62.1574C37.9005 62.1407 33.4791 58.1989 33.4791 52.4959Z" fill="white"/>
<path d="M53.9579 43.0526H59.9366L64.3938 55.5488L68.9047 43.0526H74.776L66.9177 61.8556H61.7982L53.9579 43.0526Z" fill="white"/>
<path d="M88.3255 55.129V54.1897C87.3589 53.7704 86.0879 53.4852 84.7275 53.4852C82.3109 53.4852 80.8252 54.391 80.8252 56.0683V56.1354C80.8252 57.5612 82.0961 58.3998 83.9041 58.3998C86.5533 58.4166 88.3255 57.058 88.3255 55.129ZM75.3656 56.3535V56.2864C75.3656 52.2104 78.6772 50.3318 83.385 50.3318C85.3898 50.3318 86.8397 50.6505 88.2539 51.1034V50.7847C88.2539 48.5874 86.8039 47.3797 83.9757 47.3797C81.8097 47.3797 80.2882 47.7655 78.4803 48.3861L77.0661 44.3437C79.2679 43.4379 81.4159 42.8508 84.7991 42.8508C87.878 42.8508 90.1155 43.6224 91.5296 44.9475C93.0154 46.3397 93.6777 48.3861 93.6777 50.9021V61.721H88.2181V59.7082C86.8397 61.1339 84.9423 62.0732 82.2035 62.0732C78.4445 62.0732 75.3656 60.0436 75.3656 56.3535Z" fill="white"/>
<path d="M24.0271 68.6489H30.2028V69.8734H25.495V71.903H29.6658V73.1274H25.495V75.2241H30.2565V76.4486H24.0271V68.6489Z" fill="white"/>
<path d="M35.1081 75.2072C36.8623 75.2072 38.008 74.1002 38.008 72.5738V72.557C38.008 71.0306 36.8623 69.9068 35.1081 69.9068H33.4792V75.2072H35.1081ZM31.9934 68.6488H35.0902C37.7036 68.6488 39.5116 70.3261 39.5116 72.5235V72.5402C39.5116 74.7376 37.7036 76.4484 35.0902 76.4484H31.9934V68.6488Z" fill="white"/>
<path d="M41.1771 73.1441V68.6488H42.6449V73.0938C42.6449 74.5363 43.4504 75.3247 44.7571 75.3247C46.0459 75.3247 46.8514 74.5866 46.8514 73.1441V68.6488H48.3014V73.077C48.3014 75.4085 46.9051 76.5827 44.7213 76.5827C42.5554 76.5827 41.1771 75.4085 41.1771 73.1441Z" fill="white"/>
<path d="M49.9481 72.5741V72.5574C49.9481 70.3433 51.7202 68.515 54.2442 68.515C55.7836 68.515 56.7144 69.0182 57.502 69.7226L56.5712 70.7291C55.9089 70.142 55.1929 69.7562 54.2442 69.7562C52.651 69.7562 51.4875 70.9806 51.4875 72.507V72.5238C51.4875 74.0502 52.6331 75.2914 54.2442 75.2914C55.2645 75.2914 55.9268 74.9056 56.6428 74.285L57.5736 75.174C56.6965 76.0295 55.7478 76.5494 54.1905 76.5494C51.756 76.583 49.9481 74.8218 49.9481 72.5741Z" fill="white"/>
<path d="M64.1421 73.3622L62.71 70.2423L61.278 73.3622H64.1421ZM62.0477 68.5984H63.4081L67.0777 76.4653H65.5204L64.6791 74.5866H60.741L59.8818 76.4653H58.3781L62.0477 68.5984Z" fill="white"/>
<path d="M70.0669 77.8067L70.9977 76.5151C69.0108 76.1629 67.6324 74.5526 67.6324 72.5733V72.5566C67.6324 70.3425 69.4046 68.5142 71.9286 68.5142C73.468 68.5142 74.3809 69.0174 75.1865 69.7219L74.2556 70.7283C73.5933 70.1412 72.8773 69.7554 71.9286 69.7554C70.3354 69.7554 69.1719 70.9799 69.1719 72.5062V72.523C69.1719 74.0494 70.3175 75.2906 71.9286 75.2906C72.9489 75.2906 73.6112 74.9048 74.3273 74.2842L75.276 75.1732C74.4526 75.9784 73.5575 76.4816 72.1613 76.5486L71.3736 78.2763L70.0669 77.8067Z" fill="white"/>
<path d="M81.8101 73.362L80.378 70.2421L78.946 73.362H81.8101ZM78.1583 67.7764C78.4089 66.9042 78.767 66.401 79.483 66.401C80.1453 66.401 80.8076 66.8371 81.2372 66.8371C81.5773 66.8371 81.7206 66.6526 81.8817 66.3004L82.6872 66.5184C82.4187 67.3906 82.0607 67.8938 81.3625 67.8938C80.7002 67.8938 80.0379 67.4577 79.6083 67.4577C79.2682 67.4577 79.125 67.6422 78.946 68.0113L78.1583 67.7764ZM79.7157 68.5983H81.0761L84.7458 76.4651H83.2063L82.365 74.5865H78.4268L77.5855 76.4651H76.0819L79.7157 68.5983Z" fill="white"/>
<path d="M92.4427 72.5733V72.5566C92.4427 71.0469 91.2612 69.7889 89.6144 69.7889C87.9675 69.7889 86.804 71.0302 86.804 72.5398V72.5566C86.804 74.0662 87.9855 75.3242 89.6323 75.3242C91.297 75.3242 92.4427 74.0829 92.4427 72.5733ZM85.2825 72.5733V72.5566C85.2825 70.3592 87.0904 68.5142 89.6502 68.5142C92.21 68.5142 94 70.3257 94 72.523V72.5398C94 74.7371 92.1921 76.5822 89.6323 76.5822C87.0546 76.5822 85.2825 74.7707 85.2825 72.5733Z" fill="white"/>
<path fill-rule="evenodd" clip-rule="evenodd" d="M49.6786 0.134888H33.438L37.4982 4.21118H30.5379L37.4982 8.28747H27.0578L51.9987 16.4401L27.0578 24.5926H37.4982L30.5379 28.9407H37.4982L33.438 32.7452H49.6786L67.0793 16.4401L49.6786 0.134888ZM47.9385 4.48245H38.6581L43.2983 8.28699H47.9385L57.2189 16.4396L47.9385 24.5922H43.299L51.9987 16.9836L38.0783 24.5927H43.2978L38.6581 28.9402H47.9385L60.699 16.4396L47.9385 4.48245ZM38.0783 8.28752H43.2984L51.9987 15.8966L38.0783 8.28752Z" fill="white"/>
</svg>
