<svg xmlns="http://www.w3.org/2000/svg" width="36" height="36" fill="none" viewBox="0 0 36 36"><circle cx="18" cy="18" r="18" fill="url(#paint0_linear_108_10)"/><path fill="#111" d="M21.0909 14.1875C20.9716 13.7727 20.804 13.4062 20.5881 13.0881C20.3722 12.7642 20.108 12.4915 19.7955 12.2699C19.4886 12.0426 19.1364 11.8693 18.7386 11.75C18.3466 11.6307 17.9119 11.571 17.4347 11.571C16.5426 11.571 15.7585 11.7926 15.0824 12.2358C14.4119 12.679 13.8892 13.3239 13.5142 14.1705C13.1392 15.0114 12.9517 16.0398 12.9517 17.2557C12.9517 18.4716 13.1364 19.5057 13.5057 20.358C13.875 21.2102 14.3977 21.8608 15.0739 22.3097C15.75 22.7528 16.5483 22.9744 17.4688 22.9744C18.304 22.9744 19.017 22.8267 19.608 22.5312C20.2045 22.2301 20.6591 21.8068 20.9716 21.2614C21.2898 20.7159 21.4489 20.071 21.4489 19.3267L22.1989 19.4375H17.6989V16.6591H25.0028V18.858C25.0028 20.392 24.679 21.7102 24.0312 22.8125C23.3835 23.9091 22.4915 24.7557 21.3551 25.3523C20.2188 25.9432 18.9176 26.2386 17.4517 26.2386C15.8153 26.2386 14.3778 25.8778 13.1392 25.1562C11.9006 24.429 10.9347 23.3977 10.2415 22.0625C9.55398 20.7216 9.21023 19.1307 9.21023 17.2898C9.21023 15.875 9.41477 14.6136 9.82386 13.5057C10.2386 12.392 10.8182 11.4489 11.5625 10.6761C12.3068 9.90341 13.1733 9.31534 14.1619 8.91193C15.1506 8.50852 16.2216 8.30682 17.375 8.30682C18.3636 8.30682 19.2841 8.4517 20.1364 8.74148C20.9886 9.02557 21.7443 9.42898 22.4034 9.9517C23.0682 10.4744 23.6108 11.0966 24.0312 11.8182C24.4517 12.5341 24.7216 13.3239 24.8409 14.1875H21.0909Z"/><defs><linearGradient id="paint0_linear_108_10" x1="35.557" x2="-.887" y1="18" y2="18" gradientUnits="userSpaceOnUse"><stop offset=".141" stop-color="#A4FBFB"/><stop offset=".807" stop-color="#26E1E1" stop-opacity=".83"/></linearGradient></defs></svg>