<svg width="48" height="48" viewBox="0 0 48 48" fill="none" xmlns="http://www.w3.org/2000/svg">
<rect width="48" height="48" rx="4" fill="#04BBC2"/>
<path fill-rule="evenodd" clip-rule="evenodd" d="M23 11C15.8196 11 10 16.7374 10 23.8164C10 29.478 13.7238 34.2826 18.8904 35.9788C19.5408 36.0944 19.7754 35.6999 19.7754 35.3607C19.7754 35.0561 19.765 34.2492 19.7611 33.1814C16.1442 33.9549 15.3804 31.4621 15.3804 31.4621C14.7913 29.9818 13.9375 29.5873 13.9375 29.5873C12.758 28.7919 14.0275 28.8098 14.0275 28.8098C15.3335 28.8998 16.0177 30.1308 16.0177 30.1308C17.1778 32.0891 19.0625 31.5237 19.8002 31.1961C19.9188 30.3672 20.2577 29.8019 20.6278 29.4819C17.7421 29.1594 14.7078 28.0594 14.7078 23.1469C14.7078 21.7502 15.2149 20.604 16.0425 19.7096C15.9109 19.3845 15.4612 18.0803 16.1715 16.3173C16.1715 16.3173 17.2625 15.9716 19.7454 17.6292C20.7855 17.3452 21.8947 17.2026 22.9987 17.1975C24.1053 17.2026 25.2158 17.3452 26.252 17.6292C28.7362 15.9703 29.8258 16.3173 29.8258 16.3173C30.5362 18.0803 30.0904 19.3845 29.9549 19.7096C30.7891 20.604 31.2896 21.7489 31.2896 23.1469C31.2896 28.0723 28.2527 29.1542 25.3565 29.4716C25.8192 29.8674 26.2363 30.6487 26.2363 31.8437C26.2363 33.5579 26.2207 34.9405 26.2207 35.3607C26.2207 35.7038 26.4527 36.1021 27.1161 35.9762C32.2801 34.2774 36 29.4768 36 23.8164C36 16.7374 30.1804 11 23 11Z" fill="#111111"/>
</svg>
