<svg width="48" height="48" viewBox="0 0 48 48" fill="none" xmlns="http://www.w3.org/2000/svg">
<rect width="48" height="48" rx="4" fill="#04BBC2"/>
<path fill-rule="evenodd" clip-rule="evenodd" d="M30.4167 14.8334H19.4167C17.8158 14.8334 16.6667 16.0304 16.6667 17.5834V30.4167C16.6667 31.9697 17.8158 33.1667 19.4167 33.1667H30.4167C31.005 33.1667 31.3333 32.8247 31.3333 32.25V31.3333H20.3333C19.827 31.3333 19.4166 30.9229 19.4166 30.4167C19.4166 29.9104 19.827 29.5 20.3333 29.5H31.3333V15.75C31.3333 15.1754 31.005 14.8334 30.4167 14.8334Z" fill="black"/>
<path fill-rule="evenodd" clip-rule="evenodd" d="M30.7499 14H18.95C17.2327 14 16 15.2841 16 16.95V30.7166C16 32.3825 17.2327 33.6666 18.95 33.6666H30.7499C31.3811 33.6666 31.7333 33.2997 31.7333 32.6833V31.6999H19.9333C19.3902 31.6999 18.95 31.2596 18.95 30.7165C18.95 30.1735 19.3902 29.7332 19.9333 29.7332H31.7333V14.9833C31.7333 14.3669 31.3811 14 30.7499 14Z" fill="black"/>
</svg>
