<svg xmlns="http://www.w3.org/2000/svg" width="21" height="13" fill="none" viewBox="0 0 21 13"><path fill="#fff" d="M5.803 0C6.392 0 6.922 0.0510002 7.408 0.155C7.891 0.258 8.303 0.428 8.651 0.663C8.994 0.898 9.262 1.21 9.455 1.602C9.642 1.989 9.735 2.473 9.735 3.045C9.735 3.665 9.595 4.183 9.314 4.596C9.031 5.01 8.614 5.349 8.058 5.611C8.815 5.83 9.376 6.213 9.748 6.757C10.122 7.306 10.305 7.963 10.305 8.733C10.305 9.358 10.186 9.895 9.947 10.346C9.707 10.804 9.378 11.175 8.973 11.46C8.565 11.749 8.097 11.961 7.574 12.1C7.055 12.237 6.517 12.306 5.965 12.306H0V0H5.803ZM5.452 4.972C5.932 4.972 6.33 4.858 6.644 4.627C6.956 4.399 7.107 4.023 7.107 3.508C7.107 3.222 7.056 2.986 6.956 2.801C6.853 2.618 6.714 2.474 6.539 2.373C6.365 2.268 6.17 2.197 5.942 2.158C5.719 2.114 5.485 2.097 5.245 2.097H2.71V4.972H5.452ZM5.603 10.211C5.87 10.211 6.124 10.188 6.363 10.134C6.604 10.082 6.818 9.998 7 9.873C7.182 9.753 7.332 9.59 7.44 9.382C7.549 9.176 7.602 8.907 7.602 8.584C7.602 7.95 7.423 7.499 7.069 7.226C6.714 6.956 6.238 6.822 5.655 6.822H2.71V10.212L5.603 10.211ZM14.168 10.17C14.535 10.528 15.064 10.708 15.752 10.708C16.245 10.708 16.671 10.583 17.03 10.335C17.384 10.086 17.6 9.82 17.683 9.545H19.838C19.492 10.617 18.967 11.383 18.249 11.844C17.54 12.307 16.677 12.537 15.669 12.537C14.967 12.537 14.335 12.424 13.769 12.2C13.202 11.973 12.727 11.656 12.33 11.242C11.941 10.826 11.64 10.335 11.425 9.757C11.212 9.183 11.105 8.547 11.105 7.858C11.105 7.192 11.216 6.569 11.434 5.994C11.657 5.417 11.963 4.919 12.368 4.501C12.773 4.081 13.253 3.75 13.812 3.507C14.371 3.266 14.987 3.145 15.67 3.145C16.424 3.145 17.083 3.291 17.649 3.585C18.212 3.877 18.675 4.272 19.039 4.767C19.402 5.26 19.661 5.825 19.822 6.458C19.983 7.09 20.039 7.75 19.993 8.441H13.562C13.563 9.145 13.8 9.812 14.168 10.17ZM16.98 5.489C16.689 5.167 16.197 4.993 15.595 4.993C15.204 4.993 14.881 5.058 14.621 5.192C14.367 5.325 14.16 5.489 14.001 5.683C13.844 5.88 13.736 6.088 13.673 6.311C13.611 6.528 13.573 6.724 13.562 6.898H17.544C17.486 6.274 17.272 5.813 16.98 5.489ZM13.062 0.826H18.051V2.041H13.062V0.826Z"/></svg>