<svg xmlns="http://www.w3.org/2000/svg" width="20" height="19" fill="none" viewBox="0 0 20 19"><path fill="#fff" fill-rule="evenodd" d="M10 0C4.47664 0 0 4.36046 0 9.74047C0 14.0433 2.86445 17.6948 6.83878 18.9839C7.33908 19.0718 7.51955 18.7719 7.51955 18.5141C7.51955 18.2827 7.51153 17.6694 7.50852 16.8578C4.72629 17.4457 4.13876 15.5512 4.13876 15.5512C3.68558 14.4261 3.02887 14.1263 3.02887 14.1263C2.12152 13.5218 3.09806 13.5355 3.09806 13.5355C4.10267 13.6038 4.62904 14.5394 4.62904 14.5394C5.52136 16.0277 6.97112 15.598 7.5386 15.349C7.62984 14.7191 7.89052 14.2894 8.17526 14.0462C5.95548 13.8011 3.62142 12.9652 3.62142 9.23167C3.62142 8.17012 4.01143 7.29901 4.64809 6.6193C4.54682 6.37223 4.20092 5.38099 4.74734 4.04111C4.74734 4.04111 5.58653 3.77841 7.49649 5.03821C8.29657 4.82238 9.14979 4.71398 9.999 4.71008C10.8502 4.71398 11.7044 4.82238 12.5015 5.03821C14.4125 3.77744 15.2507 4.04111 15.2507 4.04111C15.7971 5.38099 15.4542 6.37223 15.3499 6.6193C15.9916 7.29901 16.3766 8.16914 16.3766 9.23167C16.3766 12.9749 14.0405 13.7972 11.8127 14.0384C12.1686 14.3392 12.4895 14.933 12.4895 15.8412C12.4895 17.144 12.4774 18.1948 12.4774 18.5141C12.4774 18.7749 12.6559 19.0776 13.1662 18.9819C17.1386 17.6909 20 14.0423 20 9.74047C20 4.36046 15.5234 0 10 0Z" clip-rule="evenodd"/></svg>