<svg width="17" height="17" viewBox="0 0 17 17" fill="none" xmlns="http://www.w3.org/2000/svg">
<path id="linkedin" d="M15.725 2.08562e-05H1.275C0.595001 2.08562e-05 1.297e-06 0.512552 1.297e-06 1.19597V15.804C1.297e-06 16.4875 0.595001 17 1.275 17H15.725C16.405 17 17 16.4875 17 15.804V1.19597C17 0.59798 16.405 2.08562e-05 15.725 2.08562e-05ZM5.015 14.608H2.465V6.49246H5.015V14.608ZM3.74 5.29646C2.89 5.29646 2.295 4.61309 2.295 3.84424C2.295 3.0754 2.975 2.39197 3.74 2.39197C4.505 2.39197 5.185 3.0754 5.185 3.84424C5.27 4.69851 4.59 5.29646 3.74 5.29646ZM14.45 14.608H11.9V10.6784C11.9 9.73871 11.9 8.54274 10.625 8.54274C9.35 8.54274 9.09501 9.56786 9.09501 10.6784V14.6934H6.54501V6.57787H8.925V7.68846C9.265 7.00505 10.115 6.40706 11.305 6.40706C13.855 6.40706 14.365 8.1156 14.365 10.2513V14.608H14.45Z" fill="white"/>
</svg>
