<svg width="48" height="48" viewBox="0 0 48 48" fill="none" xmlns="http://www.w3.org/2000/svg">
<rect width="48" height="48" rx="4" fill="#04BBC2"/>
<path fill-rule="evenodd" clip-rule="evenodd" d="M14.967 19C13.8624 19 12.967 19.8954 12.967 21V32C12.967 33.1046 13.8624 34 14.967 34H33.0331C34.1377 34 35.0331 33.1046 35.0331 32V21C35.0331 19.8954 34.1377 19 33.0331 19H14.967ZM21.5 22C21.2239 22 21 22.2239 21 22.5V25.5C21 25.7761 21.2239 26 21.5 26H26.5C26.7761 26 27 25.7761 27 25.5V22.5C27 22.2239 26.7761 22 26.5 22H21.5Z" fill="#111111"/>
<path d="M21.5 19H19V17.75C19 15.6789 20.6789 14 22.75 14H25.25C27.3211 14 29 15.6789 29 17.75V19H26.5V17.75C26.5 17.0596 25.9404 16.5 25.25 16.5H22.75C22.0596 16.5 21.5 17.0596 21.5 17.75V19Z" fill="#111111"/>
</svg>
