<svg width="200" height="23" viewBox="0 0 200 23" fill="none" xmlns="http://www.w3.org/2000/svg">
<path d="M6.75 18.2344C5.52083 18.2344 4.46354 17.974 3.57813 17.4531C2.69792 16.9271 2.02083 16.1979 1.54688 15.2656C1.07813 14.3333 0.84375 13.2604 0.84375 12.0469C0.84375 10.8177 1.08073 9.73958 1.55469 8.8125C2.03385 7.88021 2.71354 7.15365 3.59375 6.63281C4.47396 6.10677 5.52083 5.84375 6.73438 5.84375C7.78125 5.84375 8.69792 6.03385 9.48438 6.41406C10.2708 6.79427 10.8932 7.32812 11.3516 8.01562C11.8099 8.70312 12.0625 9.51042 12.1094 10.4375H8.96875C8.88021 9.83854 8.64583 9.35677 8.26563 8.99219C7.89063 8.6224 7.39844 8.4375 6.78906 8.4375C6.27344 8.4375 5.82292 8.57812 5.4375 8.85937C5.05729 9.13542 4.76042 9.53906 4.54688 10.0703C4.33333 10.6016 4.22656 11.2448 4.22656 12C4.22656 12.7656 4.33073 13.4167 4.53906 13.9531C4.7526 14.4896 5.05208 14.8984 5.4375 15.1797C5.82292 15.4609 6.27344 15.6016 6.78906 15.6016C7.16927 15.6016 7.51042 15.5234 7.8125 15.3672C8.11979 15.2109 8.3724 14.9844 8.57031 14.6875C8.77344 14.3854 8.90625 14.0234 8.96875 13.6016H12.1094C12.0573 14.5182 11.8073 15.3255 11.3594 16.0234C10.9167 16.7161 10.3047 17.2578 9.52344 17.6484C8.74219 18.0391 7.81771 18.2344 6.75 18.2344ZM19.6621 18.2344C18.4486 18.2344 17.3991 17.9766 16.5137 17.4609C15.6335 16.9401 14.9538 16.2161 14.4746 15.2891C13.9954 14.3568 13.7559 13.276 13.7559 12.0469C13.7559 10.8073 13.9954 9.72396 14.4746 8.79687C14.9538 7.86458 15.6335 7.14062 16.5137 6.625C17.3991 6.10417 18.4486 5.84375 19.6621 5.84375C20.8757 5.84375 21.9225 6.10417 22.8027 6.625C23.6882 7.14062 24.3704 7.86458 24.8496 8.79687C25.3288 9.72396 25.5684 10.8073 25.5684 12.0469C25.5684 13.276 25.3288 14.3568 24.8496 15.2891C24.3704 16.2161 23.6882 16.9401 22.8027 17.4609C21.9225 17.9766 20.8757 18.2344 19.6621 18.2344ZM19.6777 15.6562C20.2298 15.6562 20.6908 15.5 21.0605 15.1875C21.4303 14.8698 21.709 14.4375 21.8965 13.8906C22.0892 13.3437 22.1855 12.7214 22.1855 12.0234C22.1855 11.3255 22.0892 10.7031 21.8965 10.1562C21.709 9.60937 21.4303 9.17708 21.0605 8.85937C20.6908 8.54167 20.2298 8.38281 19.6777 8.38281C19.1204 8.38281 18.6517 8.54167 18.2715 8.85937C17.8965 9.17708 17.6126 9.60937 17.4199 10.1562C17.2324 10.7031 17.1387 11.3255 17.1387 12.0234C17.1387 12.7214 17.2324 13.3437 17.4199 13.8906C17.6126 14.4375 17.8965 14.8698 18.2715 15.1875C18.6517 15.5 19.1204 15.6562 19.6777 15.6562ZM31.0605 11.0625V18H27.7324V6H30.9043V8.11719H31.0449C31.3105 7.41927 31.7559 6.86719 32.3809 6.46094C33.0059 6.04948 33.7637 5.84375 34.6543 5.84375C35.4876 5.84375 36.2142 6.02604 36.834 6.39062C37.4538 6.75521 37.9355 7.27604 38.2793 7.95312C38.623 8.625 38.7949 9.42708 38.7949 10.3594V18H35.4668V10.9531C35.472 10.2187 35.2845 9.64583 34.9043 9.23438C34.5241 8.81771 34.0007 8.60937 33.334 8.60937C32.8861 8.60937 32.4902 8.70573 32.1465 8.89844C31.8079 9.09115 31.5423 9.3724 31.3496 9.74219C31.1621 10.1068 31.0658 10.5469 31.0605 11.0625ZM51.4023 9.42187L48.3555 9.60937C48.3034 9.34896 48.1914 9.11458 48.0195 8.90625C47.8477 8.69271 47.6211 8.52344 47.3398 8.39844C47.0638 8.26823 46.7331 8.20312 46.3477 8.20312C45.832 8.20312 45.3971 8.3125 45.043 8.53125C44.6888 8.74479 44.5117 9.03125 44.5117 9.39062C44.5117 9.67708 44.6263 9.91927 44.8555 10.1172C45.0846 10.3151 45.4779 10.474 46.0352 10.5937L48.207 11.0312C49.3737 11.2708 50.2435 11.6562 50.8164 12.1875C51.3893 12.7187 51.6758 13.4167 51.6758 14.2812C51.6758 15.0677 51.444 15.7578 50.9805 16.3516C50.5221 16.9453 49.8919 17.4089 49.0898 17.7422C48.293 18.0703 47.3737 18.2344 46.332 18.2344C44.7435 18.2344 43.4779 17.9036 42.5352 17.2422C41.5977 16.5755 41.0482 15.6693 40.8867 14.5234L44.1602 14.3516C44.2591 14.8359 44.4987 15.2057 44.8789 15.4609C45.2591 15.7109 45.7461 15.8359 46.3398 15.8359C46.9232 15.8359 47.3919 15.724 47.7461 15.5C48.1055 15.2708 48.2878 14.9766 48.293 14.6172C48.2878 14.3151 48.1602 14.0677 47.9102 13.875C47.6602 13.6771 47.2747 13.526 46.7539 13.4219L44.6758 13.0078C43.5039 12.7734 42.6315 12.3672 42.0586 11.7891C41.4909 11.2109 41.207 10.474 41.207 9.57812C41.207 8.80729 41.4154 8.14323 41.832 7.58594C42.2539 7.02865 42.8451 6.59896 43.6055 6.29687C44.3711 5.99479 45.2669 5.84375 46.293 5.84375C47.8086 5.84375 49.0013 6.16406 49.8711 6.80469C50.7461 7.44531 51.2565 8.31771 51.4023 9.42187ZM59.1934 18.2344C57.9798 18.2344 56.9303 17.9766 56.0449 17.4609C55.1647 16.9401 54.485 16.2161 54.0059 15.2891C53.5267 14.3568 53.2871 13.276 53.2871 12.0469C53.2871 10.8073 53.5267 9.72396 54.0059 8.79687C54.485 7.86458 55.1647 7.14062 56.0449 6.625C56.9303 6.10417 57.9798 5.84375 59.1934 5.84375C60.4069 5.84375 61.4538 6.10417 62.334 6.625C63.2194 7.14062 63.9017 7.86458 64.3809 8.79687C64.86 9.72396 65.0996 10.8073 65.0996 12.0469C65.0996 13.276 64.86 14.3568 64.3809 15.2891C63.9017 16.2161 63.2194 16.9401 62.334 17.4609C61.4538 17.9766 60.4069 18.2344 59.1934 18.2344ZM59.209 15.6562C59.7611 15.6562 60.222 15.5 60.5918 15.1875C60.9616 14.8698 61.2402 14.4375 61.4277 13.8906C61.6204 13.3437 61.7168 12.7214 61.7168 12.0234C61.7168 11.3255 61.6204 10.7031 61.4277 10.1562C61.2402 9.60937 60.9616 9.17708 60.5918 8.85937C60.222 8.54167 59.7611 8.38281 59.209 8.38281C58.6517 8.38281 58.1829 8.54167 57.8027 8.85937C57.4277 9.17708 57.1439 9.60937 56.9512 10.1562C56.7637 10.7031 56.6699 11.3255 56.6699 12.0234C56.6699 12.7214 56.7637 13.3437 56.9512 13.8906C57.1439 14.4375 57.4277 14.8698 57.8027 15.1875C58.1829 15.5 58.6517 15.6562 59.209 15.6562ZM70.5918 2V18H67.2637V2H70.5918ZM78.7266 18.2344C77.4922 18.2344 76.4297 17.9844 75.5391 17.4844C74.6536 16.9792 73.9714 16.2656 73.4922 15.3437C73.013 14.4167 72.7734 13.3203 72.7734 12.0547C72.7734 10.8203 73.013 9.73698 73.4922 8.80469C73.9714 7.8724 74.6458 7.14583 75.5156 6.625C76.3906 6.10417 77.4167 5.84375 78.5938 5.84375C79.3854 5.84375 80.1224 5.97135 80.8047 6.22656C81.4922 6.47656 82.0911 6.85417 82.6016 7.35937C83.1172 7.86458 83.5182 8.5 83.8047 9.26562C84.0911 10.026 84.2344 10.9167 84.2344 11.9375V12.8516H74.1016V10.7891H81.1016C81.1016 10.3099 80.9974 9.88542 80.7891 9.51563C80.5807 9.14583 80.2917 8.85677 79.9219 8.64844C79.5573 8.4349 79.1328 8.32812 78.6484 8.32812C78.1432 8.32812 77.6953 8.44531 77.3047 8.67969C76.9193 8.90885 76.6172 9.21875 76.3984 9.60937C76.1797 9.99479 76.0677 10.4245 76.0625 10.8984V12.8594C76.0625 13.4531 76.1719 13.9661 76.3906 14.3984C76.6146 14.8307 76.9297 15.1641 77.3359 15.3984C77.7422 15.6328 78.224 15.75 78.7812 15.75C79.151 15.75 79.4896 15.6979 79.7969 15.5938C80.1042 15.4896 80.3672 15.3333 80.5859 15.125C80.8047 14.9167 80.9714 14.6615 81.0859 14.3594L84.1641 14.5625C84.0078 15.3021 83.6875 15.9479 83.2031 16.5C82.724 17.0469 82.1042 17.474 81.3438 17.7813C80.5885 18.0833 79.7161 18.2344 78.7266 18.2344ZM88.3516 18.2031C87.8359 18.2031 87.3932 18.0208 87.0234 17.6562C86.6589 17.2865 86.4766 16.8437 86.4766 16.3281C86.4766 15.8177 86.6589 15.3802 87.0234 15.0156C87.3932 14.651 87.8359 14.4687 88.3516 14.4687C88.8516 14.4687 89.2891 14.651 89.6641 15.0156C90.0391 15.3802 90.2266 15.8177 90.2266 16.3281C90.2266 16.6719 90.138 16.987 89.9609 17.2734C89.7891 17.5547 89.5625 17.7812 89.2813 17.9531C89 18.1198 88.6901 18.2031 88.3516 18.2031ZM96.2871 2V18H92.959V2H96.2871ZM104.375 18.2344C103.161 18.2344 102.112 17.9766 101.227 17.4609C100.346 16.9401 99.6667 16.2161 99.1875 15.2891C98.7083 14.3568 98.4688 13.276 98.4688 12.0469C98.4688 10.8073 98.7083 9.72396 99.1875 8.79687C99.6667 7.86458 100.346 7.14062 101.227 6.625C102.112 6.10417 103.161 5.84375 104.375 5.84375C105.589 5.84375 106.635 6.10417 107.516 6.625C108.401 7.14062 109.083 7.86458 109.562 8.79687C110.042 9.72396 110.281 10.8073 110.281 12.0469C110.281 13.276 110.042 14.3568 109.562 15.2891C109.083 16.2161 108.401 16.9401 107.516 17.4609C106.635 17.9766 105.589 18.2344 104.375 18.2344ZM104.391 15.6562C104.943 15.6562 105.404 15.5 105.773 15.1875C106.143 14.8698 106.422 14.4375 106.609 13.8906C106.802 13.3437 106.898 12.7214 106.898 12.0234C106.898 11.3255 106.802 10.7031 106.609 10.1562C106.422 9.60937 106.143 9.17708 105.773 8.85937C105.404 8.54167 104.943 8.38281 104.391 8.38281C103.833 8.38281 103.365 8.54167 102.984 8.85937C102.609 9.17708 102.326 9.60937 102.133 10.1562C101.945 10.7031 101.852 11.3255 101.852 12.0234C101.852 12.7214 101.945 13.3437 102.133 13.8906C102.326 14.4375 102.609 14.8698 102.984 15.1875C103.365 15.5 103.833 15.6562 104.391 15.6562ZM117.852 22.75C116.773 22.75 115.849 22.6016 115.078 22.3047C114.313 22.013 113.703 21.6146 113.25 21.1094C112.797 20.6042 112.503 20.0365 112.367 19.4062L115.445 18.9922C115.539 19.2318 115.688 19.4557 115.891 19.6641C116.094 19.8724 116.362 20.0391 116.695 20.1641C117.034 20.2943 117.445 20.3594 117.93 20.3594C118.654 20.3594 119.25 20.1823 119.719 19.8281C120.193 19.4792 120.43 18.8932 120.43 18.0703V15.875H120.289C120.143 16.2083 119.924 16.5234 119.633 16.8203C119.341 17.1172 118.966 17.3594 118.508 17.5469C118.049 17.7344 117.503 17.8281 116.867 17.8281C115.966 17.8281 115.146 17.6198 114.406 17.2031C113.672 16.7812 113.086 16.138 112.648 15.2734C112.216 14.4036 112 13.3047 112 11.9766C112 10.6172 112.221 9.48177 112.664 8.57031C113.107 7.65885 113.695 6.97656 114.43 6.52344C115.169 6.07031 115.979 5.84375 116.859 5.84375C117.531 5.84375 118.094 5.95833 118.547 6.1875C119 6.41146 119.365 6.69271 119.641 7.03125C119.922 7.36458 120.138 7.69271 120.289 8.01562H120.414V6H123.719V18.1172C123.719 19.138 123.469 19.9922 122.969 20.6797C122.469 21.3672 121.776 21.8828 120.891 22.2266C120.01 22.5755 118.997 22.75 117.852 22.75ZM117.922 15.3281C118.458 15.3281 118.911 15.1953 119.281 14.9297C119.656 14.6589 119.943 14.2734 120.141 13.7734C120.344 13.2682 120.445 12.6641 120.445 11.9609C120.445 11.2578 120.346 10.6484 120.148 10.1328C119.951 9.61198 119.664 9.20833 119.289 8.92187C118.914 8.63542 118.458 8.49219 117.922 8.49219C117.375 8.49219 116.914 8.64062 116.539 8.9375C116.164 9.22917 115.88 9.63542 115.688 10.1562C115.495 10.6771 115.398 11.2786 115.398 11.9609C115.398 12.6536 115.495 13.2526 115.688 13.7578C115.885 14.2578 116.169 14.6458 116.539 14.9219C116.914 15.1927 117.375 15.3281 117.922 15.3281ZM127.102 11.5859C127.102 9.64844 127.359 7.86458 127.875 6.23438C128.396 4.60417 129.19 3.09375 130.258 1.70312H133.437C133.031 2.21875 132.654 2.84896 132.305 3.59375C131.956 4.33333 131.651 5.14583 131.391 6.03125C131.13 6.91667 130.927 7.83333 130.781 8.78125C130.635 9.72396 130.563 10.6589 130.563 11.5859C130.563 12.8203 130.688 14.0677 130.938 15.3281C131.193 16.5833 131.536 17.75 131.969 18.8281C132.406 19.9063 132.896 20.7891 133.437 21.4766H130.258C129.19 20.0859 128.396 18.5755 127.875 16.9453C127.359 15.3151 127.102 13.5286 127.102 11.5859ZM135.252 7V5.3125C135.252 4.83333 135.346 4.34375 135.533 3.84375C135.721 3.34375 135.968 2.8724 136.275 2.42969C136.583 1.98698 136.916 1.61719 137.275 1.32031L138.744 2.1875C138.452 2.64583 138.213 3.125 138.025 3.625C137.843 4.125 137.752 4.68229 137.752 5.29687V7H135.252ZM139.197 7V5.3125C139.197 4.83333 139.291 4.34375 139.479 3.84375C139.666 3.34375 139.913 2.8724 140.221 2.42969C140.528 1.98698 140.861 1.61719 141.221 1.32031L142.689 2.1875C142.398 2.64583 142.158 3.125 141.971 3.625C141.788 4.125 141.697 4.68229 141.697 5.29687V7H139.197ZM150.072 18.2344C148.859 18.2344 147.809 17.9766 146.924 17.4609C146.044 16.9401 145.364 16.2161 144.885 15.2891C144.406 14.3568 144.166 13.276 144.166 12.0469C144.166 10.8073 144.406 9.72396 144.885 8.79687C145.364 7.86458 146.044 7.14062 146.924 6.625C147.809 6.10417 148.859 5.84375 150.072 5.84375C151.286 5.84375 152.333 6.10417 153.213 6.625C154.098 7.14062 154.781 7.86458 155.26 8.79687C155.739 9.72396 155.979 10.8073 155.979 12.0469C155.979 13.276 155.739 14.3568 155.26 15.2891C154.781 16.2161 154.098 16.9401 153.213 17.4609C152.333 17.9766 151.286 18.2344 150.072 18.2344ZM150.088 15.6562C150.64 15.6562 151.101 15.5 151.471 15.1875C151.84 14.8698 152.119 14.4375 152.307 13.8906C152.499 13.3437 152.596 12.7214 152.596 12.0234C152.596 11.3255 152.499 10.7031 152.307 10.1562C152.119 9.60937 151.84 9.17708 151.471 8.85937C151.101 8.54167 150.64 8.38281 150.088 8.38281C149.531 8.38281 149.062 8.54167 148.682 8.85937C148.307 9.17708 148.023 9.60937 147.83 10.1562C147.643 10.7031 147.549 11.3255 147.549 12.0234C147.549 12.7214 147.643 13.3437 147.83 13.8906C148.023 14.4375 148.307 14.8698 148.682 15.1875C149.062 15.5 149.531 15.6562 150.088 15.6562ZM161.471 2V18H158.143V2H161.471ZM167.559 18.2266C166.793 18.2266 166.111 18.0938 165.512 17.8281C164.913 17.5573 164.439 17.1589 164.09 16.6328C163.746 16.1016 163.574 15.4401 163.574 14.6484C163.574 13.9818 163.697 13.4219 163.941 12.9687C164.186 12.5156 164.52 12.151 164.941 11.875C165.363 11.599 165.842 11.3906 166.379 11.25C166.921 11.1094 167.488 11.0104 168.082 10.9531C168.78 10.8802 169.342 10.8125 169.77 10.75C170.197 10.6823 170.507 10.5833 170.699 10.4531C170.892 10.3229 170.988 10.1302 170.988 9.875V9.82812C170.988 9.33333 170.832 8.95052 170.52 8.67969C170.212 8.40885 169.775 8.27344 169.207 8.27344C168.608 8.27344 168.132 8.40625 167.777 8.67187C167.423 8.93229 167.189 9.26042 167.074 9.65625L163.996 9.40625C164.152 8.67708 164.46 8.04687 164.918 7.51562C165.376 6.97917 165.967 6.56771 166.691 6.28125C167.421 5.98958 168.264 5.84375 169.223 5.84375C169.889 5.84375 170.527 5.92187 171.137 6.07812C171.751 6.23437 172.296 6.47656 172.77 6.80469C173.249 7.13281 173.626 7.55469 173.902 8.07031C174.178 8.58073 174.316 9.19271 174.316 9.90625V18H171.16V16.3359H171.066C170.874 16.7109 170.616 17.0417 170.293 17.3281C169.97 17.6094 169.582 17.8307 169.129 17.9922C168.676 18.1484 168.152 18.2266 167.559 18.2266ZM168.512 15.9297C169.001 15.9297 169.434 15.8333 169.809 15.6406C170.184 15.4427 170.478 15.1771 170.691 14.8438C170.905 14.5104 171.012 14.1328 171.012 13.7109V12.4375C170.908 12.5052 170.764 12.5677 170.582 12.625C170.405 12.6771 170.204 12.7266 169.98 12.7734C169.757 12.8151 169.533 12.8542 169.309 12.8906C169.085 12.9219 168.882 12.9505 168.699 12.9766C168.309 13.0339 167.967 13.125 167.676 13.25C167.384 13.375 167.158 13.5443 166.996 13.7578C166.835 13.9661 166.754 14.2266 166.754 14.5391C166.754 14.9922 166.918 15.3385 167.246 15.5781C167.579 15.8125 168.001 15.9297 168.512 15.9297ZM168.152 4.45312L169.809 0.898438H172.887L170.504 4.45312H168.152ZM179.688 2V3.6875C179.688 4.16667 179.594 4.65625 179.406 5.15625C179.224 5.65104 178.979 6.11979 178.672 6.5625C178.365 7 178.029 7.3724 177.664 7.67969L176.195 6.8125C176.456 6.40104 176.685 5.94531 176.883 5.44531C177.086 4.94531 177.188 4.36458 177.188 3.70312V2H179.688ZM183.617 2V3.6875C183.617 4.16667 183.523 4.65625 183.336 5.15625C183.154 5.65104 182.909 6.11979 182.602 6.5625C182.294 7 181.956 7.3724 181.586 7.67969L180.117 6.8125C180.383 6.40104 180.615 5.94531 180.812 5.44531C181.016 4.94531 181.117 4.36458 181.117 3.70312V2H183.617ZM191.768 11.5859C191.768 13.5286 191.507 15.3151 190.986 16.9453C190.471 18.5755 189.679 20.0859 188.611 21.4766H185.432C185.838 20.9609 186.215 20.3307 186.564 19.5859C186.913 18.8411 187.218 18.0286 187.479 17.1484C187.739 16.263 187.942 15.3464 188.088 14.3984C188.234 13.4505 188.307 12.513 188.307 11.5859C188.307 10.3516 188.179 9.10677 187.924 7.85156C187.674 6.59115 187.33 5.42448 186.893 4.35156C186.46 3.27344 185.973 2.39062 185.432 1.70312H188.611C189.679 3.09375 190.471 4.60417 190.986 6.23438C191.507 7.86458 191.768 9.64844 191.768 11.5859ZM198.777 15.8125L198.691 16.6719C198.624 17.3594 198.493 18.0443 198.301 18.7266C198.113 19.4141 197.915 20.0365 197.707 20.5938C197.504 21.151 197.34 21.5885 197.215 21.9063H195.059C195.137 21.599 195.243 21.1693 195.379 20.6172C195.514 20.0703 195.642 19.4557 195.762 18.7734C195.882 18.0911 195.957 17.3958 195.988 16.6875L196.027 15.8125H198.777ZM197.387 9.79687C196.871 9.79687 196.428 9.61458 196.059 9.25C195.694 8.88542 195.512 8.44271 195.512 7.92187C195.512 7.41146 195.694 6.97656 196.059 6.61719C196.428 6.2526 196.871 6.07031 197.387 6.07031C197.887 6.07031 198.324 6.2526 198.699 6.61719C199.074 6.97656 199.262 7.41146 199.262 7.92187C199.262 8.27083 199.173 8.58854 198.996 8.875C198.824 9.15625 198.598 9.38021 198.316 9.54687C198.035 9.71354 197.725 9.79687 197.387 9.79687Z" fill="url(#paint0_linear_11_53)"/>
<defs>
<linearGradient id="paint0_linear_11_53" x1="198.525" y1="9.50003" x2="-4.95074" y2="9.50004" gradientUnits="userSpaceOnUse">
<stop offset="0.140625" stop-color="#A4FBFB"/>
<stop offset="0.807292" stop-color="#26E1E1" stop-opacity="0.83"/>
</linearGradient>
</defs>
</svg>
