<svg width="170" height="36" viewBox="0 0 170 36" fill="none" xmlns="http://www.w3.org/2000/svg">
<path d="M44.75 26.2266C43.9844 26.2266 43.3021 26.0938 42.7031 25.8281C42.1042 25.5573 41.6302 25.1589 41.2813 24.6328C40.9375 24.1016 40.7656 23.4401 40.7656 22.6484C40.7656 21.9818 40.888 21.4219 41.1328 20.9687C41.3776 20.5156 41.7109 20.151 42.1328 19.875C42.5547 19.599 43.0339 19.3906 43.5703 19.25C44.112 19.1094 44.6797 19.0104 45.2734 18.9531C45.9714 18.8802 46.5339 18.8125 46.9609 18.75C47.388 18.6823 47.6979 18.5833 47.8906 18.4531C48.0833 18.3229 48.1797 18.1302 48.1797 17.875V17.8281C48.1797 17.3333 48.0234 16.9505 47.7109 16.6797C47.4036 16.4089 46.9661 16.2734 46.3984 16.2734C45.7995 16.2734 45.3229 16.4062 44.9688 16.6719C44.6146 16.9323 44.3802 17.2604 44.2656 17.6562L41.1875 17.4062C41.3438 16.6771 41.651 16.0469 42.1094 15.5156C42.5677 14.9792 43.1589 14.5677 43.8828 14.2812C44.612 13.9896 45.4557 13.8438 46.4141 13.8438C47.0807 13.8438 47.7188 13.9219 48.3281 14.0781C48.9427 14.2344 49.487 14.4766 49.9609 14.8047C50.4401 15.1328 50.8177 15.5547 51.0938 16.0703C51.3698 16.5807 51.5078 17.1927 51.5078 17.9062V26H48.3516V24.3359H48.2578C48.0651 24.7109 47.8073 25.0417 47.4844 25.3281C47.1615 25.6094 46.7734 25.8307 46.3203 25.9922C45.8672 26.1484 45.3438 26.2266 44.75 26.2266ZM45.7031 23.9297C46.1927 23.9297 46.625 23.8333 47 23.6406C47.375 23.4427 47.6693 23.1771 47.8828 22.8438C48.0964 22.5104 48.2031 22.1328 48.2031 21.7109V20.4375C48.099 20.5052 47.9557 20.5677 47.7734 20.625C47.5964 20.6771 47.3958 20.7266 47.1719 20.7734C46.9479 20.8151 46.724 20.8542 46.5 20.8906C46.276 20.9219 46.0729 20.9505 45.8906 20.9766C45.5 21.0339 45.1589 21.125 44.8672 21.25C44.5755 21.375 44.349 21.5443 44.1875 21.7578C44.026 21.9661 43.9453 22.2266 43.9453 22.5391C43.9453 22.9922 44.1094 23.3385 44.4375 23.5781C44.7708 23.8125 45.1927 23.9297 45.7031 23.9297ZM54.1523 26V10H57.4805V16.0156H57.582C57.7279 15.6927 57.9388 15.3646 58.2148 15.0312C58.4961 14.6927 58.8607 14.4115 59.3086 14.1875C59.7617 13.9583 60.3242 13.8438 60.9961 13.8438C61.8711 13.8438 62.6784 14.0729 63.418 14.5313C64.1576 14.9844 64.7487 15.6693 65.1914 16.5859C65.6341 17.4974 65.8555 18.6406 65.8555 20.0156C65.8555 21.3542 65.6393 22.4844 65.207 23.4062C64.7799 24.3229 64.1966 25.0182 63.457 25.4922C62.7227 25.9609 61.8997 26.1953 60.9883 26.1953C60.3424 26.1953 59.793 26.0885 59.3398 25.875C58.8919 25.6615 58.5247 25.3932 58.2383 25.0703C57.9518 24.7422 57.7331 24.4115 57.582 24.0781H57.4336V26H54.1523ZM57.4102 20C57.4102 20.7135 57.5091 21.3359 57.707 21.8672C57.9049 22.3984 58.1914 22.8125 58.5664 23.1094C58.9414 23.401 59.3971 23.5469 59.9336 23.5469C60.4753 23.5469 60.9336 23.3984 61.3086 23.1016C61.6836 22.7995 61.9674 22.3828 62.1602 21.8516C62.3581 21.3151 62.457 20.6979 62.457 20C62.457 19.3073 62.3607 18.6979 62.168 18.1719C61.9753 17.6458 61.6914 17.2344 61.3164 16.9375C60.9414 16.6406 60.4805 16.4922 59.9336 16.4922C59.3919 16.4922 58.9336 16.6354 58.5586 16.9219C58.1888 17.2083 57.9049 17.6146 57.707 18.1406C57.5091 18.6667 57.4102 19.2865 57.4102 20ZM68.0762 26V14H71.3027V16.0937H71.4277C71.6465 15.349 72.0137 14.7865 72.5293 14.4063C73.0449 14.0208 73.6387 13.8281 74.3105 13.8281C74.4772 13.8281 74.6569 13.8385 74.8496 13.8594C75.0423 13.8802 75.2116 13.9089 75.3574 13.9453V16.8984C75.2012 16.8516 74.985 16.8099 74.709 16.7734C74.4329 16.737 74.1803 16.7188 73.9512 16.7188C73.4616 16.7188 73.0241 16.8255 72.6387 17.0391C72.2585 17.2474 71.9564 17.5391 71.7324 17.9141C71.5137 18.2891 71.4043 18.7214 71.4043 19.2109V26H68.0762ZM77.0781 26V14H80.4063V26H77.0781ZM78.75 12.4531C78.2552 12.4531 77.8307 12.2891 77.4766 11.9609C77.1276 11.6276 76.9531 11.2292 76.9531 10.7656C76.9531 10.3073 77.1276 9.91406 77.4766 9.58594C77.8307 9.2526 78.2552 9.08594 78.75 9.08594C79.2448 9.08594 79.6667 9.2526 80.0156 9.58594C80.3698 9.91406 80.5469 10.3073 80.5469 10.7656C80.5469 11.2292 80.3698 11.6276 80.0156 11.9609C79.6667 12.2891 79.2448 12.4531 78.75 12.4531ZM88.541 26.2344C87.3066 26.2344 86.2441 25.9844 85.3535 25.4844C84.4681 24.9792 83.7858 24.2656 83.3066 23.3437C82.8275 22.4167 82.5879 21.3203 82.5879 20.0547C82.5879 18.8203 82.8275 17.737 83.3066 16.8047C83.7858 15.8724 84.4603 15.1458 85.3301 14.625C86.2051 14.1042 87.2311 13.8438 88.4082 13.8438C89.1999 13.8438 89.9368 13.9714 90.6191 14.2266C91.3066 14.4766 91.9056 14.8542 92.416 15.3594C92.9316 15.8646 93.3327 16.5 93.6191 17.2656C93.9056 18.026 94.0488 18.9167 94.0488 19.9375V20.8516H83.916V18.7891H90.916C90.916 18.3099 90.8118 17.8854 90.6035 17.5156C90.3952 17.1458 90.1061 16.8568 89.7363 16.6484C89.3717 16.4349 88.9473 16.3281 88.4629 16.3281C87.9577 16.3281 87.5098 16.4453 87.1191 16.6797C86.7337 16.9089 86.4316 17.2187 86.2129 17.6094C85.9941 17.9948 85.8822 18.4245 85.877 18.8984V20.8594C85.877 21.4531 85.9863 21.9661 86.2051 22.3984C86.429 22.8307 86.7441 23.1641 87.1504 23.3984C87.5566 23.6328 88.0384 23.75 88.5957 23.75C88.9655 23.75 89.304 23.6979 89.6113 23.5938C89.9186 23.4896 90.1816 23.3333 90.4004 23.125C90.6191 22.9167 90.7858 22.6615 90.9004 22.3594L93.9785 22.5625C93.8223 23.3021 93.502 23.9479 93.0176 24.5C92.5384 25.0469 91.9186 25.474 91.1582 25.7813C90.403 26.0833 89.5306 26.2344 88.541 26.2344ZM99.5488 10V26H96.2207V10H99.5488ZM107.369 26V10H113.775C114.952 10 115.934 10.1745 116.721 10.5234C117.507 10.8724 118.098 11.3568 118.494 11.9766C118.89 12.5911 119.088 13.2995 119.088 14.1016C119.088 14.7266 118.963 15.276 118.713 15.75C118.463 16.2187 118.119 16.6042 117.682 16.9062C117.249 17.2031 116.755 17.4141 116.197 17.5391V17.6953C116.807 17.7214 117.377 17.8932 117.908 18.2109C118.445 18.5286 118.88 18.974 119.213 19.5469C119.546 20.1146 119.713 20.7917 119.713 21.5781C119.713 22.4271 119.502 23.1849 119.08 23.8516C118.663 24.513 118.046 25.0365 117.229 25.4219C116.411 25.8073 115.403 26 114.205 26H107.369ZM110.752 23.2344H113.51C114.452 23.2344 115.14 23.0547 115.572 22.6953C116.005 22.3307 116.221 21.8464 116.221 21.2422C116.221 20.7995 116.114 20.4089 115.9 20.0703C115.687 19.7318 115.382 19.4661 114.986 19.2734C114.596 19.0807 114.13 18.9844 113.588 18.9844H110.752V23.2344ZM110.752 16.6953H113.26C113.723 16.6953 114.135 16.6146 114.494 16.4531C114.859 16.2865 115.145 16.0521 115.354 15.75C115.567 15.4479 115.674 15.0859 115.674 14.6641C115.674 14.0859 115.468 13.6198 115.057 13.2656C114.65 12.9115 114.072 12.7344 113.322 12.7344H110.752V16.6953ZM125.273 26.2266C124.508 26.2266 123.826 26.0938 123.227 25.8281C122.628 25.5573 122.154 25.1589 121.805 24.6328C121.461 24.1016 121.289 23.4401 121.289 22.6484C121.289 21.9818 121.411 21.4219 121.656 20.9687C121.901 20.5156 122.234 20.151 122.656 19.875C123.078 19.599 123.557 19.3906 124.094 19.25C124.635 19.1094 125.203 19.0104 125.797 18.9531C126.495 18.8802 127.057 18.8125 127.484 18.75C127.911 18.6823 128.221 18.5833 128.414 18.4531C128.607 18.3229 128.703 18.1302 128.703 17.875V17.8281C128.703 17.3333 128.547 16.9505 128.234 16.6797C127.927 16.4089 127.49 16.2734 126.922 16.2734C126.323 16.2734 125.846 16.4062 125.492 16.6719C125.138 16.9323 124.904 17.2604 124.789 17.6562L121.711 17.4062C121.867 16.6771 122.174 16.0469 122.633 15.5156C123.091 14.9792 123.682 14.5677 124.406 14.2812C125.135 13.9896 125.979 13.8438 126.938 13.8438C127.604 13.8438 128.242 13.9219 128.852 14.0781C129.466 14.2344 130.01 14.4766 130.484 14.8047C130.964 15.1328 131.341 15.5547 131.617 16.0703C131.893 16.5807 132.031 17.1927 132.031 17.9062V26H128.875V24.3359H128.781C128.589 24.7109 128.331 25.0417 128.008 25.3281C127.685 25.6094 127.297 25.8307 126.844 25.9922C126.391 26.1484 125.867 26.2266 125.273 26.2266ZM126.227 23.9297C126.716 23.9297 127.148 23.8333 127.523 23.6406C127.898 23.4427 128.193 23.1771 128.406 22.8438C128.62 22.5104 128.727 22.1328 128.727 21.7109V20.4375C128.622 20.5052 128.479 20.5677 128.297 20.625C128.12 20.6771 127.919 20.7266 127.695 20.7734C127.471 20.8151 127.247 20.8542 127.023 20.8906C126.799 20.9219 126.596 20.9505 126.414 20.9766C126.023 21.0339 125.682 21.125 125.391 21.25C125.099 21.375 124.872 21.5443 124.711 21.7578C124.549 21.9661 124.469 22.2266 124.469 22.5391C124.469 22.9922 124.633 23.3385 124.961 23.5781C125.294 23.8125 125.716 23.9297 126.227 23.9297ZM137.941 10V26H134.613V10H137.941ZM146.99 14V16.5H139.764V14H146.99ZM141.404 11.125H144.732V22.3125C144.732 22.6198 144.779 22.8594 144.873 23.0312C144.967 23.1979 145.097 23.3151 145.264 23.3828C145.436 23.4505 145.633 23.4844 145.857 23.4844C146.014 23.4844 146.17 23.4714 146.326 23.4453C146.482 23.4141 146.602 23.3906 146.686 23.375L147.209 25.8516C147.042 25.9036 146.808 25.9635 146.506 26.0313C146.204 26.1042 145.837 26.1484 145.404 26.1641C144.602 26.1953 143.899 26.0885 143.295 25.8437C142.696 25.599 142.23 25.2187 141.896 24.7031C141.563 24.1875 141.399 23.5365 141.404 22.75V11.125ZM152.58 26.2266C151.814 26.2266 151.132 26.0938 150.533 25.8281C149.934 25.5573 149.46 25.1589 149.111 24.6328C148.768 24.1016 148.596 23.4401 148.596 22.6484C148.596 21.9818 148.718 21.4219 148.963 20.9687C149.208 20.5156 149.541 20.151 149.963 19.875C150.385 19.599 150.864 19.3906 151.4 19.25C151.942 19.1094 152.51 19.0104 153.104 18.9531C153.801 18.8802 154.364 18.8125 154.791 18.75C155.218 18.6823 155.528 18.5833 155.721 18.4531C155.913 18.3229 156.01 18.1302 156.01 17.875V17.8281C156.01 17.3333 155.854 16.9505 155.541 16.6797C155.234 16.4089 154.796 16.2734 154.229 16.2734C153.63 16.2734 153.153 16.4062 152.799 16.6719C152.445 16.9323 152.21 17.2604 152.096 17.6562L149.018 17.4062C149.174 16.6771 149.481 16.0469 149.939 15.5156C150.398 14.9792 150.989 14.5677 151.713 14.2812C152.442 13.9896 153.286 13.8438 154.244 13.8438C154.911 13.8438 155.549 13.9219 156.158 14.0781C156.773 14.2344 157.317 14.4766 157.791 14.8047C158.27 15.1328 158.648 15.5547 158.924 16.0703C159.2 16.5807 159.338 17.1927 159.338 17.9062V26H156.182V24.3359H156.088C155.895 24.7109 155.637 25.0417 155.314 25.3281C154.992 25.6094 154.604 25.8307 154.15 25.9922C153.697 26.1484 153.174 26.2266 152.58 26.2266ZM153.533 23.9297C154.023 23.9297 154.455 23.8333 154.83 23.6406C155.205 23.4427 155.499 23.1771 155.713 22.8438C155.926 22.5104 156.033 22.1328 156.033 21.7109V20.4375C155.929 20.5052 155.786 20.5677 155.604 20.625C155.426 20.6771 155.226 20.7266 155.002 20.7734C154.778 20.8151 154.554 20.8542 154.33 20.8906C154.106 20.9219 153.903 20.9505 153.721 20.9766C153.33 21.0339 152.989 21.125 152.697 21.25C152.406 21.375 152.179 21.5443 152.018 21.7578C151.856 21.9661 151.775 22.2266 151.775 22.5391C151.775 22.9922 151.939 23.3385 152.268 23.5781C152.601 23.8125 153.023 23.9297 153.533 23.9297ZM161.92 26V14H165.146V16.0937H165.271C165.49 15.349 165.857 14.7865 166.373 14.4063C166.889 14.0208 167.482 13.8281 168.154 13.8281C168.321 13.8281 168.501 13.8385 168.693 13.8594C168.886 13.8802 169.055 13.9089 169.201 13.9453V16.8984C169.045 16.8516 168.829 16.8099 168.553 16.7734C168.277 16.737 168.024 16.7188 167.795 16.7188C167.305 16.7188 166.868 16.8255 166.482 17.0391C166.102 17.2474 165.8 17.5391 165.576 17.9141C165.357 18.2891 165.248 18.7214 165.248 19.2109V26H161.92Z" fill="url(#paint0_linear_48_3)"/>
<circle cx="18" cy="18" r="18" fill="url(#paint1_linear_48_3)"/>
<path d="M20.9091 15.1562C20.8097 14.8106 20.67 14.5052 20.4901 14.2401C20.3101 13.9702 20.09 13.7429 19.8295 13.5582C19.5739 13.3688 19.2803 13.2244 18.9489 13.125C18.6222 13.0256 18.2599 12.9759 17.8622 12.9759C17.1188 12.9759 16.4654 13.1605 15.902 13.5298C15.3433 13.8991 14.9077 14.4366 14.5952 15.142C14.2827 15.8428 14.1264 16.6998 14.1264 17.7131C14.1264 18.7263 14.2803 19.5881 14.5881 20.2983C14.8958 21.0085 15.3314 21.5507 15.8949 21.9247C16.4583 22.294 17.1236 22.4787 17.8906 22.4787C18.5866 22.4787 19.1809 22.3556 19.6733 22.1094C20.1705 21.8584 20.5492 21.5057 20.8097 21.0511C21.0748 20.5966 21.2074 20.0592 21.2074 19.4389L21.8324 19.5312H18.0824V17.2159H24.169V19.0483C24.169 20.3267 23.8991 21.4252 23.3594 22.3438C22.8196 23.2576 22.0762 23.9631 21.1293 24.4602C20.1823 24.9527 19.098 25.1989 17.8764 25.1989C16.5128 25.1989 15.3149 24.8982 14.2827 24.2969C13.2505 23.6908 12.4455 22.8314 11.8679 21.7188C11.295 20.6013 11.0085 19.2756 11.0085 17.7415C11.0085 16.5625 11.179 15.5114 11.5199 14.5881C11.8655 13.66 12.3485 12.8741 12.9688 12.2301C13.589 11.5862 14.3111 11.0961 15.1349 10.7599C15.9588 10.4238 16.8513 10.2557 17.8125 10.2557C18.6364 10.2557 19.4034 10.3764 20.1136 10.6179C20.8239 10.8546 21.4536 11.1908 22.0028 11.6264C22.5568 12.062 23.009 12.5805 23.3594 13.1818C23.7098 13.7784 23.9347 14.4366 24.0341 15.1562H20.9091Z" fill="#0F0909"/>
<defs>
<linearGradient id="paint0_linear_48_3" x1="168.399" y1="17.5" x2="36.798" y2="17.5" gradientUnits="userSpaceOnUse">
<stop offset="0.140625" stop-color="#A4FBFB"/>
<stop offset="0.807292" stop-color="#26E1E1" stop-opacity="0.83"/>
</linearGradient>
<linearGradient id="paint1_linear_48_3" x1="35.5566" y1="18" x2="-0.8867" y2="18" gradientUnits="userSpaceOnUse">
<stop offset="0.140625" stop-color="#A4FBFB"/>
<stop offset="0.807292" stop-color="#26E1E1" stop-opacity="0.83"/>
</linearGradient>
</defs>
</svg>
