<svg xmlns="http://www.w3.org/2000/svg" width="23" height="22" fill="none" viewBox="0 0 23 22"><path fill="url(#paint0_linear_20_3)" fill-rule="evenodd" d="M11.4999 18.8898L5.88257 21.8418C5.21025 22.1951 4.37869 21.9367 4.02523 21.2647C3.88448 20.9971 3.83591 20.6906 3.88704 20.3926L4.95986 14.1402L0.415332 9.7123C-0.128586 9.18234 -0.139715 8.31197 0.390474 7.76828C0.601598 7.55178 0.878234 7.41089 1.17755 7.36741L7.45794 6.45521L10.2666 0.766634C10.6028 0.0857888 11.4274 -0.193749 12.1086 0.142268C12.3798 0.276071 12.5994 0.495518 12.7332 0.766634L15.5419 6.45521L21.8223 7.36741C22.5739 7.47659 23.0948 8.1742 22.9855 8.92555C22.942 9.22475 22.8011 9.50127 22.5845 9.7123L18.04 14.1402L19.1128 20.3926C19.2412 21.1409 18.7384 21.8516 17.9897 21.9799C17.6916 22.031 17.385 21.9825 17.1173 21.8418L11.4999 18.8898Z" clip-rule="evenodd" opacity=".3"/><defs><linearGradient id="paint0_linear_20_3" x1="22.717" x2="-.567" y1="11" y2="11" gradientUnits="userSpaceOnUse"><stop offset=".141" stop-color="#A4FBFB"/><stop offset=".807" stop-color="#26E1E1" stop-opacity=".83"/></linearGradient></defs></svg>