<svg width="37" height="39" viewBox="0 0 37 39" fill="none" xmlns="http://www.w3.org/2000/svg">
<path opacity="0.2" fill-rule="evenodd" clip-rule="evenodd" d="M22.8008 30.4816L15.2995 37.4619C14.4018 38.2974 13.0004 38.2307 12.1695 37.3129C11.8387 36.9474 11.6349 36.4825 11.5897 35.9901L10.6424 25.6577L1.72207 20.522C0.654435 19.9073 0.272986 18.535 0.870086 17.4569C1.10785 17.0275 1.47914 16.6908 1.92646 16.499L11.3122 12.4727L13.3004 2.31835C13.5384 1.103 14.704 0.321591 15.9039 0.573011C16.3817 0.673128 16.8149 0.92999 17.1365 1.30383L23.8846 9.14781L34.0337 8.00777C35.2484 7.87133 36.3502 8.76071 36.4947 9.99426C36.5522 10.4855 36.4487 10.9809 36.2002 11.4038L30.9849 20.2779L35.2692 29.7277C35.782 30.8587 35.2974 32.1898 34.1867 32.7008C33.7445 32.9042 33.2473 32.9535 32.772 32.8411L22.8008 30.4816Z" fill="url(#paint0_linear_20_6)"/>
<defs>
<linearGradient id="paint0_linear_20_6" x1="36.9446" y1="13.3866" x2="0.733847" y2="22.963" gradientUnits="userSpaceOnUse">
<stop offset="0.140625" stop-color="#A4FBFB"/>
<stop offset="0.807292" stop-color="#26E1E1" stop-opacity="0.83"/>
</linearGradient>
</defs>
</svg>
