<svg xmlns="http://www.w3.org/2000/svg" width="125" height="34" fill="none" viewBox="0 0 125 34"><path fill="#fff" d="M71.2977 0.581848C71.9601 0.581848 72.0926 0.661332 72.0926 2.99286V5.13893C72.0926 7.36447 71.9071 7.62942 71.2977 7.62942H63.8527V32.7198C63.8527 33.2762 63.1374 33.4087 60.6469 33.4087H59.3222C56.7787 33.4087 56.3548 33.2762 56.3548 32.7198V7.62942H48.9098C48.3004 7.62942 48.1149 7.44396 48.1149 5.13893V2.99286C48.1149 0.581848 48.2474 0.581848 48.9098 0.581848H71.2977ZM84.651 1.2972C84.651 0.8203 83.9622 0.581848 81.5512 0.581848H80.1469C77.6034 0.581848 77.1795 0.793805 77.1795 1.2972V32.7463C77.1795 33.3027 77.6034 33.4352 80.1469 33.4352H81.5512C83.9622 33.4352 84.651 33.3027 84.651 32.7463V1.2972ZM121.002 0.581848H118.803C115.994 0.581848 115.835 0.899784 115.597 1.37669L111.252 11.7891C109.794 15.2599 108.311 18.9691 107.754 20.9032C107.224 18.9691 106.271 16.3991 104.257 11.6036L99.9384 1.37669C99.6735 0.767311 98.5872 0.581848 96.2027 0.581848H93.7652C91.3542 0.581848 90.8773 0.793805 90.8773 1.2972V32.7463C90.8773 33.3027 91.3542 33.4352 93.8447 33.4352H95.1959C97.6599 33.4352 98.3487 33.3027 98.3487 32.7463V14.0676H98.5342C98.5342 14.0676 98.7462 14.9419 99.1171 15.7368L104.098 27.4209C104.31 27.9508 104.575 28.1628 106.907 28.1628H108.39C110.748 28.1628 110.934 27.9773 111.146 27.4209L115.703 16.1607C116.127 15.1009 116.445 14.0676 116.445 14.0676H116.63V32.7198C116.63 33.2762 117.107 33.4087 119.703 33.4087H121.028C123.439 33.4087 124.128 33.2762 124.128 32.7198V1.2972C124.128 0.793805 123.413 0.581848 121.002 0.581848Z"/><path fill="#EB0028" d="M37.4369 7.62942H1.90761C1.37772 7.62942 0.900818 7.41746 0.556388 7.07303C0.211957 6.7286 0 6.2517 0 5.7483V2.48946C0 1.95957 0.211957 1.50916 0.556388 1.16473C0.927313 0.793805 1.37772 0.581848 1.90761 0.581848H37.4369C37.9668 0.581848 38.4437 0.793805 38.7882 1.13824C39.1326 1.48267 39.3446 1.93307 39.3446 2.46297V5.69531C39.3446 6.2252 39.1326 6.67561 38.7882 7.02004C38.4437 7.39097 37.9668 7.62942 37.4369 7.62942ZM15.7378 13.4847H1.90761C1.37772 13.4847 0.900818 13.6967 0.582882 14.0411C0.238452 14.3856 0.0264947 14.8625 0.0264947 15.3659V18.5982C0.0264947 19.1281 0.238452 19.605 0.582882 19.9229C0.927313 20.2674 1.40422 20.4793 1.93411 20.4793H15.7643V13.4847H15.7378ZM38.7882 14.0676C38.4437 13.7232 37.9668 13.5112 37.4369 13.5112H23.6067V20.5323H37.4369C37.9668 20.5323 38.4437 20.3203 38.7882 19.9759C39.1326 19.6315 39.3446 19.1546 39.3446 18.6512V15.3923C39.3446 14.8625 39.1326 14.3856 38.7882 14.0676ZM38.7882 26.9705C38.4437 26.6261 37.9668 26.4141 37.4369 26.4141H23.6067V33.4352H37.4369C37.9668 33.4352 38.4437 33.2232 38.7882 32.8788C39.1326 32.5344 39.3446 32.0575 39.3446 31.5541V28.3217C39.3446 27.7918 39.1326 27.3149 38.7882 26.9705ZM15.7378 26.4141H1.90761C1.37772 26.4141 0.900818 26.6261 0.582882 26.9705C0.238452 27.3149 0.0264947 27.7918 0.0264947 28.2952V31.5276C0.0264947 32.0575 0.238452 32.5344 0.582882 32.8523C0.927313 33.1967 1.40422 33.4087 1.93411 33.4087H15.7643V26.4141H15.7378Z"/></svg>