<svg xmlns="http://www.w3.org/2000/svg" width="93" height="48" fill="none" viewBox="0 0 93 48"><g clip-path="url(#clip0_68_173)"><path fill="#E98138" d="M92.2364 41.4618C92.2364 44.8785 89.4567 47.6475 86.0223 47.6475C82.5963 47.6475 79.8213 44.8785 79.8213 41.4618C79.8213 38.0413 82.5963 35.2762 86.0223 35.2762C89.4567 35.2762 92.2364 38.0413 92.2364 41.4618Z"/><path fill="#438BC7" d="M80.468 31.562H91.5878V0.3524H80.468V31.562Z"/><path fill="#438BC7" d="M28.508 41.6859C27.3895 44.6679 24.5138 46.8056 21.1443 46.8056C17.6694 46.8056 14.6846 44.4914 13.7458 41.3731L-0.356873 0.352985H11.4017C13.1777 6.0647 20.5065 29.6964 20.927 31.9425H21.4086C21.7943 29.6465 29.1486 6.0551 30.9349 0.352985H42.6972"/><path fill="#438BC7" d="M60.3303 0.352497V36.1867H75.6814V46.8061H53.7361C50.773 46.8061 48.3648 44.4093 48.3648 41.4628V0.352497"/></g><defs><clipPath id="clip0_68_173"><rect width="93" height="48" fill="#fff"/></clipPath></defs></svg>